%TF.GenerationSoftware,KiCad,Pcbnew,5.1.9-1.fc33*%
%TF.CreationDate,2021-03-04T20:35:35+03:00*%
%TF.ProjectId,CC2420_module,43433234-3230-45f6-9d6f-64756c652e6b,rev?*%
%TF.SameCoordinates,Original*%
%TF.FileFunction,Legend,Top*%
%TF.FilePolarity,Positive*%
%FSLAX46Y46*%
G04 Gerber Fmt 4.6, Leading zero omitted, Abs format (unit mm)*
G04 Created by KiCad (PCBNEW 5.1.9-1.fc33) date 2021-03-04 20:35:35*
%MOMM*%
%LPD*%
G01*
G04 APERTURE LIST*
%ADD10C,0.100000*%
%ADD11C,0.150000*%
%ADD12C,0.400000*%
%ADD13C,0.300000*%
%ADD14C,0.120000*%
G04 APERTURE END LIST*
D10*
X191131666Y-67675000D02*
X191098333Y-67708333D01*
X190998333Y-67741666D01*
X190931666Y-67741666D01*
X190831666Y-67708333D01*
X190765000Y-67641666D01*
X190731666Y-67575000D01*
X190698333Y-67441666D01*
X190698333Y-67341666D01*
X190731666Y-67208333D01*
X190765000Y-67141666D01*
X190831666Y-67075000D01*
X190931666Y-67041666D01*
X190998333Y-67041666D01*
X191098333Y-67075000D01*
X191131666Y-67108333D01*
X191831666Y-67675000D02*
X191798333Y-67708333D01*
X191698333Y-67741666D01*
X191631666Y-67741666D01*
X191531666Y-67708333D01*
X191465000Y-67641666D01*
X191431666Y-67575000D01*
X191398333Y-67441666D01*
X191398333Y-67341666D01*
X191431666Y-67208333D01*
X191465000Y-67141666D01*
X191531666Y-67075000D01*
X191631666Y-67041666D01*
X191698333Y-67041666D01*
X191798333Y-67075000D01*
X191831666Y-67108333D01*
X192098333Y-67108333D02*
X192131666Y-67075000D01*
X192198333Y-67041666D01*
X192365000Y-67041666D01*
X192431666Y-67075000D01*
X192465000Y-67108333D01*
X192498333Y-67175000D01*
X192498333Y-67241666D01*
X192465000Y-67341666D01*
X192065000Y-67741666D01*
X192498333Y-67741666D01*
X193098333Y-67275000D02*
X193098333Y-67741666D01*
X192931666Y-67008333D02*
X192765000Y-67508333D01*
X193198333Y-67508333D01*
X193431666Y-67108333D02*
X193465000Y-67075000D01*
X193531666Y-67041666D01*
X193698333Y-67041666D01*
X193765000Y-67075000D01*
X193798333Y-67108333D01*
X193831666Y-67175000D01*
X193831666Y-67241666D01*
X193798333Y-67341666D01*
X193398333Y-67741666D01*
X193831666Y-67741666D01*
X194265000Y-67041666D02*
X194331666Y-67041666D01*
X194398333Y-67075000D01*
X194431666Y-67108333D01*
X194465000Y-67175000D01*
X194498333Y-67308333D01*
X194498333Y-67475000D01*
X194465000Y-67608333D01*
X194431666Y-67675000D01*
X194398333Y-67708333D01*
X194331666Y-67741666D01*
X194265000Y-67741666D01*
X194198333Y-67708333D01*
X194165000Y-67675000D01*
X194131666Y-67608333D01*
X194098333Y-67475000D01*
X194098333Y-67308333D01*
X194131666Y-67175000D01*
X194165000Y-67108333D01*
X194198333Y-67075000D01*
X194265000Y-67041666D01*
X195331666Y-67741666D02*
X195331666Y-67275000D01*
X195331666Y-67341666D02*
X195365000Y-67308333D01*
X195431666Y-67275000D01*
X195531666Y-67275000D01*
X195598333Y-67308333D01*
X195631666Y-67375000D01*
X195631666Y-67741666D01*
X195631666Y-67375000D02*
X195665000Y-67308333D01*
X195731666Y-67275000D01*
X195831666Y-67275000D01*
X195898333Y-67308333D01*
X195931666Y-67375000D01*
X195931666Y-67741666D01*
X196365000Y-67741666D02*
X196298333Y-67708333D01*
X196265000Y-67675000D01*
X196231666Y-67608333D01*
X196231666Y-67408333D01*
X196265000Y-67341666D01*
X196298333Y-67308333D01*
X196365000Y-67275000D01*
X196465000Y-67275000D01*
X196531666Y-67308333D01*
X196565000Y-67341666D01*
X196598333Y-67408333D01*
X196598333Y-67608333D01*
X196565000Y-67675000D01*
X196531666Y-67708333D01*
X196465000Y-67741666D01*
X196365000Y-67741666D01*
X197198333Y-67741666D02*
X197198333Y-67041666D01*
X197198333Y-67708333D02*
X197131666Y-67741666D01*
X196998333Y-67741666D01*
X196931666Y-67708333D01*
X196898333Y-67675000D01*
X196865000Y-67608333D01*
X196865000Y-67408333D01*
X196898333Y-67341666D01*
X196931666Y-67308333D01*
X196998333Y-67275000D01*
X197131666Y-67275000D01*
X197198333Y-67308333D01*
X197831666Y-67275000D02*
X197831666Y-67741666D01*
X197531666Y-67275000D02*
X197531666Y-67641666D01*
X197565000Y-67708333D01*
X197631666Y-67741666D01*
X197731666Y-67741666D01*
X197798333Y-67708333D01*
X197831666Y-67675000D01*
X198265000Y-67741666D02*
X198198333Y-67708333D01*
X198165000Y-67641666D01*
X198165000Y-67041666D01*
X198798333Y-67708333D02*
X198731666Y-67741666D01*
X198598333Y-67741666D01*
X198531666Y-67708333D01*
X198498333Y-67641666D01*
X198498333Y-67375000D01*
X198531666Y-67308333D01*
X198598333Y-67275000D01*
X198731666Y-67275000D01*
X198798333Y-67308333D01*
X198831666Y-67375000D01*
X198831666Y-67441666D01*
X198498333Y-67508333D01*
X191265000Y-68425000D02*
X190731666Y-68625000D01*
X191265000Y-68825000D01*
X192131666Y-68425000D02*
X191598333Y-68625000D01*
X192131666Y-68825000D01*
X192765000Y-68425000D02*
X192765000Y-68991666D01*
X192731666Y-69058333D01*
X192698333Y-69091666D01*
X192631666Y-69125000D01*
X192531666Y-69125000D01*
X192465000Y-69091666D01*
X192765000Y-68858333D02*
X192698333Y-68891666D01*
X192565000Y-68891666D01*
X192498333Y-68858333D01*
X192465000Y-68825000D01*
X192431666Y-68758333D01*
X192431666Y-68558333D01*
X192465000Y-68491666D01*
X192498333Y-68458333D01*
X192565000Y-68425000D01*
X192698333Y-68425000D01*
X192765000Y-68458333D01*
X193098333Y-68891666D02*
X193098333Y-68425000D01*
X193098333Y-68191666D02*
X193065000Y-68225000D01*
X193098333Y-68258333D01*
X193131666Y-68225000D01*
X193098333Y-68191666D01*
X193098333Y-68258333D01*
X193331666Y-68425000D02*
X193598333Y-68425000D01*
X193431666Y-68191666D02*
X193431666Y-68791666D01*
X193465000Y-68858333D01*
X193531666Y-68891666D01*
X193598333Y-68891666D01*
X193831666Y-68891666D02*
X193831666Y-68191666D01*
X194131666Y-68891666D02*
X194131666Y-68525000D01*
X194098333Y-68458333D01*
X194031666Y-68425000D01*
X193931666Y-68425000D01*
X193865000Y-68458333D01*
X193831666Y-68491666D01*
X194765000Y-68425000D02*
X194765000Y-68891666D01*
X194465000Y-68425000D02*
X194465000Y-68791666D01*
X194498333Y-68858333D01*
X194565000Y-68891666D01*
X194665000Y-68891666D01*
X194731666Y-68858333D01*
X194765000Y-68825000D01*
X195098333Y-68891666D02*
X195098333Y-68191666D01*
X195098333Y-68458333D02*
X195165000Y-68425000D01*
X195298333Y-68425000D01*
X195365000Y-68458333D01*
X195398333Y-68491666D01*
X195431666Y-68558333D01*
X195431666Y-68758333D01*
X195398333Y-68825000D01*
X195365000Y-68858333D01*
X195298333Y-68891666D01*
X195165000Y-68891666D01*
X195098333Y-68858333D01*
X195731666Y-68825000D02*
X195765000Y-68858333D01*
X195731666Y-68891666D01*
X195698333Y-68858333D01*
X195731666Y-68825000D01*
X195731666Y-68891666D01*
X196365000Y-68858333D02*
X196298333Y-68891666D01*
X196165000Y-68891666D01*
X196098333Y-68858333D01*
X196065000Y-68825000D01*
X196031666Y-68758333D01*
X196031666Y-68558333D01*
X196065000Y-68491666D01*
X196098333Y-68458333D01*
X196165000Y-68425000D01*
X196298333Y-68425000D01*
X196365000Y-68458333D01*
X196765000Y-68891666D02*
X196698333Y-68858333D01*
X196665000Y-68825000D01*
X196631666Y-68758333D01*
X196631666Y-68558333D01*
X196665000Y-68491666D01*
X196698333Y-68458333D01*
X196765000Y-68425000D01*
X196865000Y-68425000D01*
X196931666Y-68458333D01*
X196965000Y-68491666D01*
X196998333Y-68558333D01*
X196998333Y-68758333D01*
X196965000Y-68825000D01*
X196931666Y-68858333D01*
X196865000Y-68891666D01*
X196765000Y-68891666D01*
X197298333Y-68891666D02*
X197298333Y-68425000D01*
X197298333Y-68491666D02*
X197331666Y-68458333D01*
X197398333Y-68425000D01*
X197498333Y-68425000D01*
X197565000Y-68458333D01*
X197598333Y-68525000D01*
X197598333Y-68891666D01*
X197598333Y-68525000D02*
X197631666Y-68458333D01*
X197698333Y-68425000D01*
X197798333Y-68425000D01*
X197865000Y-68458333D01*
X197898333Y-68525000D01*
X197898333Y-68891666D01*
X198731666Y-68158333D02*
X198131666Y-69058333D01*
X198965000Y-68891666D02*
X198965000Y-68191666D01*
X199365000Y-68891666D02*
X199065000Y-68491666D01*
X199365000Y-68191666D02*
X198965000Y-68591666D01*
X199765000Y-68891666D02*
X199698333Y-68858333D01*
X199665000Y-68825000D01*
X199631666Y-68758333D01*
X199631666Y-68558333D01*
X199665000Y-68491666D01*
X199698333Y-68458333D01*
X199765000Y-68425000D01*
X199865000Y-68425000D01*
X199931666Y-68458333D01*
X199965000Y-68491666D01*
X199998333Y-68558333D01*
X199998333Y-68758333D01*
X199965000Y-68825000D01*
X199931666Y-68858333D01*
X199865000Y-68891666D01*
X199765000Y-68891666D01*
X200231666Y-68425000D02*
X200398333Y-68891666D01*
X200565000Y-68425000D02*
X200398333Y-68891666D01*
X200331666Y-69058333D01*
X200298333Y-69091666D01*
X200231666Y-69125000D01*
X201131666Y-68891666D02*
X201131666Y-68525000D01*
X201098333Y-68458333D01*
X201031666Y-68425000D01*
X200898333Y-68425000D01*
X200831666Y-68458333D01*
X201131666Y-68858333D02*
X201065000Y-68891666D01*
X200898333Y-68891666D01*
X200831666Y-68858333D01*
X200798333Y-68791666D01*
X200798333Y-68725000D01*
X200831666Y-68658333D01*
X200898333Y-68625000D01*
X201065000Y-68625000D01*
X201131666Y-68591666D01*
X201465000Y-68425000D02*
X201465000Y-68891666D01*
X201465000Y-68491666D02*
X201498333Y-68458333D01*
X201565000Y-68425000D01*
X201665000Y-68425000D01*
X201731666Y-68458333D01*
X201765000Y-68525000D01*
X201765000Y-68891666D01*
X202098333Y-68891666D02*
X202098333Y-68425000D01*
X202098333Y-68191666D02*
X202065000Y-68225000D01*
X202098333Y-68258333D01*
X202131666Y-68225000D01*
X202098333Y-68191666D01*
X202098333Y-68258333D01*
X202398333Y-68858333D02*
X202465000Y-68891666D01*
X202598333Y-68891666D01*
X202665000Y-68858333D01*
X202698333Y-68791666D01*
X202698333Y-68758333D01*
X202665000Y-68691666D01*
X202598333Y-68658333D01*
X202498333Y-68658333D01*
X202431666Y-68625000D01*
X202398333Y-68558333D01*
X202398333Y-68525000D01*
X202431666Y-68458333D01*
X202498333Y-68425000D01*
X202598333Y-68425000D01*
X202665000Y-68458333D01*
X203298333Y-68425000D02*
X203298333Y-69125000D01*
X203298333Y-68858333D02*
X203231666Y-68891666D01*
X203098333Y-68891666D01*
X203031666Y-68858333D01*
X202998333Y-68825000D01*
X202965000Y-68758333D01*
X202965000Y-68558333D01*
X202998333Y-68491666D01*
X203031666Y-68458333D01*
X203098333Y-68425000D01*
X203231666Y-68425000D01*
X203298333Y-68458333D01*
X203931666Y-68891666D02*
X203931666Y-68525000D01*
X203898333Y-68458333D01*
X203831666Y-68425000D01*
X203698333Y-68425000D01*
X203631666Y-68458333D01*
X203931666Y-68858333D02*
X203865000Y-68891666D01*
X203698333Y-68891666D01*
X203631666Y-68858333D01*
X203598333Y-68791666D01*
X203598333Y-68725000D01*
X203631666Y-68658333D01*
X203698333Y-68625000D01*
X203865000Y-68625000D01*
X203931666Y-68591666D01*
X204165000Y-68425000D02*
X204431666Y-68425000D01*
X204265000Y-68191666D02*
X204265000Y-68791666D01*
X204298333Y-68858333D01*
X204365000Y-68891666D01*
X204431666Y-68891666D01*
X204631666Y-68858333D02*
X204698333Y-68891666D01*
X204831666Y-68891666D01*
X204898333Y-68858333D01*
X204931666Y-68791666D01*
X204931666Y-68758333D01*
X204898333Y-68691666D01*
X204831666Y-68658333D01*
X204731666Y-68658333D01*
X204665000Y-68625000D01*
X204631666Y-68558333D01*
X204631666Y-68525000D01*
X204665000Y-68458333D01*
X204731666Y-68425000D01*
X204831666Y-68425000D01*
X204898333Y-68458333D01*
X205231666Y-68891666D02*
X205231666Y-68425000D01*
X205231666Y-68191666D02*
X205198333Y-68225000D01*
X205231666Y-68258333D01*
X205265000Y-68225000D01*
X205231666Y-68191666D01*
X205231666Y-68258333D01*
X206065000Y-68158333D02*
X205465000Y-69058333D01*
X206698333Y-68825000D02*
X206665000Y-68858333D01*
X206565000Y-68891666D01*
X206498333Y-68891666D01*
X206398333Y-68858333D01*
X206331666Y-68791666D01*
X206298333Y-68725000D01*
X206265000Y-68591666D01*
X206265000Y-68491666D01*
X206298333Y-68358333D01*
X206331666Y-68291666D01*
X206398333Y-68225000D01*
X206498333Y-68191666D01*
X206565000Y-68191666D01*
X206665000Y-68225000D01*
X206698333Y-68258333D01*
X207398333Y-68825000D02*
X207365000Y-68858333D01*
X207265000Y-68891666D01*
X207198333Y-68891666D01*
X207098333Y-68858333D01*
X207031666Y-68791666D01*
X206998333Y-68725000D01*
X206965000Y-68591666D01*
X206965000Y-68491666D01*
X206998333Y-68358333D01*
X207031666Y-68291666D01*
X207098333Y-68225000D01*
X207198333Y-68191666D01*
X207265000Y-68191666D01*
X207365000Y-68225000D01*
X207398333Y-68258333D01*
X207665000Y-68258333D02*
X207698333Y-68225000D01*
X207765000Y-68191666D01*
X207931666Y-68191666D01*
X207998333Y-68225000D01*
X208031666Y-68258333D01*
X208065000Y-68325000D01*
X208065000Y-68391666D01*
X208031666Y-68491666D01*
X207631666Y-68891666D01*
X208065000Y-68891666D01*
X208665000Y-68425000D02*
X208665000Y-68891666D01*
X208498333Y-68158333D02*
X208331666Y-68658333D01*
X208765000Y-68658333D01*
X208998333Y-68258333D02*
X209031666Y-68225000D01*
X209098333Y-68191666D01*
X209265000Y-68191666D01*
X209331666Y-68225000D01*
X209365000Y-68258333D01*
X209398333Y-68325000D01*
X209398333Y-68391666D01*
X209365000Y-68491666D01*
X208965000Y-68891666D01*
X209398333Y-68891666D01*
X209831666Y-68191666D02*
X209898333Y-68191666D01*
X209965000Y-68225000D01*
X209998333Y-68258333D01*
X210031666Y-68325000D01*
X210065000Y-68458333D01*
X210065000Y-68625000D01*
X210031666Y-68758333D01*
X209998333Y-68825000D01*
X209965000Y-68858333D01*
X209898333Y-68891666D01*
X209831666Y-68891666D01*
X209765000Y-68858333D01*
X209731666Y-68825000D01*
X209698333Y-68758333D01*
X209665000Y-68625000D01*
X209665000Y-68458333D01*
X209698333Y-68325000D01*
X209731666Y-68258333D01*
X209765000Y-68225000D01*
X209831666Y-68191666D01*
X210198333Y-68958333D02*
X210731666Y-68958333D01*
X210898333Y-68891666D02*
X210898333Y-68425000D01*
X210898333Y-68491666D02*
X210931666Y-68458333D01*
X210998333Y-68425000D01*
X211098333Y-68425000D01*
X211165000Y-68458333D01*
X211198333Y-68525000D01*
X211198333Y-68891666D01*
X211198333Y-68525000D02*
X211231666Y-68458333D01*
X211298333Y-68425000D01*
X211398333Y-68425000D01*
X211465000Y-68458333D01*
X211498333Y-68525000D01*
X211498333Y-68891666D01*
X211931666Y-68891666D02*
X211865000Y-68858333D01*
X211831666Y-68825000D01*
X211798333Y-68758333D01*
X211798333Y-68558333D01*
X211831666Y-68491666D01*
X211865000Y-68458333D01*
X211931666Y-68425000D01*
X212031666Y-68425000D01*
X212098333Y-68458333D01*
X212131666Y-68491666D01*
X212165000Y-68558333D01*
X212165000Y-68758333D01*
X212131666Y-68825000D01*
X212098333Y-68858333D01*
X212031666Y-68891666D01*
X211931666Y-68891666D01*
X212765000Y-68891666D02*
X212765000Y-68191666D01*
X212765000Y-68858333D02*
X212698333Y-68891666D01*
X212565000Y-68891666D01*
X212498333Y-68858333D01*
X212465000Y-68825000D01*
X212431666Y-68758333D01*
X212431666Y-68558333D01*
X212465000Y-68491666D01*
X212498333Y-68458333D01*
X212565000Y-68425000D01*
X212698333Y-68425000D01*
X212765000Y-68458333D01*
X213398333Y-68425000D02*
X213398333Y-68891666D01*
X213098333Y-68425000D02*
X213098333Y-68791666D01*
X213131666Y-68858333D01*
X213198333Y-68891666D01*
X213298333Y-68891666D01*
X213365000Y-68858333D01*
X213398333Y-68825000D01*
X213831666Y-68891666D02*
X213765000Y-68858333D01*
X213731666Y-68791666D01*
X213731666Y-68191666D01*
X214365000Y-68858333D02*
X214298333Y-68891666D01*
X214165000Y-68891666D01*
X214098333Y-68858333D01*
X214065000Y-68791666D01*
X214065000Y-68525000D01*
X214098333Y-68458333D01*
X214165000Y-68425000D01*
X214298333Y-68425000D01*
X214365000Y-68458333D01*
X214398333Y-68525000D01*
X214398333Y-68591666D01*
X214065000Y-68658333D01*
X214698333Y-68425000D02*
X215231666Y-68625000D01*
X214698333Y-68825000D01*
X215565000Y-68425000D02*
X216098333Y-68625000D01*
X215565000Y-68825000D01*
D11*
X179859404Y-85900000D02*
X179764166Y-85852380D01*
X179621309Y-85852380D01*
X179478452Y-85900000D01*
X179383214Y-85995238D01*
X179335595Y-86090476D01*
X179287976Y-86280952D01*
X179287976Y-86423809D01*
X179335595Y-86614285D01*
X179383214Y-86709523D01*
X179478452Y-86804761D01*
X179621309Y-86852380D01*
X179716547Y-86852380D01*
X179859404Y-86804761D01*
X179907023Y-86757142D01*
X179907023Y-86423809D01*
X179716547Y-86423809D01*
X180335595Y-86852380D02*
X180335595Y-85852380D01*
X180907023Y-86852380D01*
X180907023Y-85852380D01*
X181383214Y-86852380D02*
X181383214Y-85852380D01*
X181621309Y-85852380D01*
X181764166Y-85900000D01*
X181859404Y-85995238D01*
X181907023Y-86090476D01*
X181954642Y-86280952D01*
X181954642Y-86423809D01*
X181907023Y-86614285D01*
X181859404Y-86709523D01*
X181764166Y-86804761D01*
X181621309Y-86852380D01*
X181383214Y-86852380D01*
X179192738Y-83352380D02*
X179526071Y-84352380D01*
X179859404Y-83352380D01*
X180764166Y-84352380D02*
X180430833Y-83876190D01*
X180192738Y-84352380D02*
X180192738Y-83352380D01*
X180573690Y-83352380D01*
X180668928Y-83400000D01*
X180716547Y-83447619D01*
X180764166Y-83542857D01*
X180764166Y-83685714D01*
X180716547Y-83780952D01*
X180668928Y-83828571D01*
X180573690Y-83876190D01*
X180192738Y-83876190D01*
X181192738Y-83828571D02*
X181526071Y-83828571D01*
X181668928Y-84352380D02*
X181192738Y-84352380D01*
X181192738Y-83352380D01*
X181668928Y-83352380D01*
X182621309Y-83400000D02*
X182526071Y-83352380D01*
X182383214Y-83352380D01*
X182240357Y-83400000D01*
X182145119Y-83495238D01*
X182097500Y-83590476D01*
X182049880Y-83780952D01*
X182049880Y-83923809D01*
X182097500Y-84114285D01*
X182145119Y-84209523D01*
X182240357Y-84304761D01*
X182383214Y-84352380D01*
X182478452Y-84352380D01*
X182621309Y-84304761D01*
X182668928Y-84257142D01*
X182668928Y-83923809D01*
X182478452Y-83923809D01*
X179668928Y-81228571D02*
X179335595Y-81228571D01*
X179335595Y-81752380D02*
X179335595Y-80752380D01*
X179811785Y-80752380D01*
X180192738Y-81752380D02*
X180192738Y-80752380D01*
X181002261Y-81228571D02*
X180668928Y-81228571D01*
X180668928Y-81752380D02*
X180668928Y-80752380D01*
X181145119Y-80752380D01*
X181716547Y-80752380D02*
X181907023Y-80752380D01*
X182002261Y-80800000D01*
X182097500Y-80895238D01*
X182145119Y-81085714D01*
X182145119Y-81419047D01*
X182097500Y-81609523D01*
X182002261Y-81704761D01*
X181907023Y-81752380D01*
X181716547Y-81752380D01*
X181621309Y-81704761D01*
X181526071Y-81609523D01*
X181478452Y-81419047D01*
X181478452Y-81085714D01*
X181526071Y-80895238D01*
X181621309Y-80800000D01*
X181716547Y-80752380D01*
X182573690Y-81752380D02*
X182573690Y-80752380D01*
X182954642Y-80752380D01*
X183049880Y-80800000D01*
X183097500Y-80847619D01*
X183145119Y-80942857D01*
X183145119Y-81085714D01*
X183097500Y-81180952D01*
X183049880Y-81228571D01*
X182954642Y-81276190D01*
X182573690Y-81276190D01*
X179287976Y-79204761D02*
X179430833Y-79252380D01*
X179668928Y-79252380D01*
X179764166Y-79204761D01*
X179811785Y-79157142D01*
X179859404Y-79061904D01*
X179859404Y-78966666D01*
X179811785Y-78871428D01*
X179764166Y-78823809D01*
X179668928Y-78776190D01*
X179478452Y-78728571D01*
X179383214Y-78680952D01*
X179335595Y-78633333D01*
X179287976Y-78538095D01*
X179287976Y-78442857D01*
X179335595Y-78347619D01*
X179383214Y-78300000D01*
X179478452Y-78252380D01*
X179716547Y-78252380D01*
X179859404Y-78300000D01*
X180621309Y-78728571D02*
X180287976Y-78728571D01*
X180287976Y-79252380D02*
X180287976Y-78252380D01*
X180764166Y-78252380D01*
X181145119Y-79252380D02*
X181145119Y-78252380D01*
X181383214Y-78252380D01*
X181526071Y-78300000D01*
X181621309Y-78395238D01*
X181668928Y-78490476D01*
X181716547Y-78680952D01*
X181716547Y-78823809D01*
X181668928Y-79014285D01*
X181621309Y-79109523D01*
X181526071Y-79204761D01*
X181383214Y-79252380D01*
X181145119Y-79252380D01*
X179907023Y-76657142D02*
X179859404Y-76704761D01*
X179716547Y-76752380D01*
X179621309Y-76752380D01*
X179478452Y-76704761D01*
X179383214Y-76609523D01*
X179335595Y-76514285D01*
X179287976Y-76323809D01*
X179287976Y-76180952D01*
X179335595Y-75990476D01*
X179383214Y-75895238D01*
X179478452Y-75800000D01*
X179621309Y-75752380D01*
X179716547Y-75752380D01*
X179859404Y-75800000D01*
X179907023Y-75847619D01*
X180287976Y-76704761D02*
X180430833Y-76752380D01*
X180668928Y-76752380D01*
X180764166Y-76704761D01*
X180811785Y-76657142D01*
X180859404Y-76561904D01*
X180859404Y-76466666D01*
X180811785Y-76371428D01*
X180764166Y-76323809D01*
X180668928Y-76276190D01*
X180478452Y-76228571D01*
X180383214Y-76180952D01*
X180335595Y-76133333D01*
X180287976Y-76038095D01*
X180287976Y-75942857D01*
X180335595Y-75847619D01*
X180383214Y-75800000D01*
X180478452Y-75752380D01*
X180716547Y-75752380D01*
X180859404Y-75800000D01*
X179335595Y-74152380D02*
X179335595Y-73152380D01*
X179668928Y-73866666D01*
X180002261Y-73152380D01*
X180002261Y-74152380D01*
X180668928Y-73152380D02*
X180859404Y-73152380D01*
X180954642Y-73200000D01*
X181049880Y-73295238D01*
X181097500Y-73485714D01*
X181097500Y-73819047D01*
X181049880Y-74009523D01*
X180954642Y-74104761D01*
X180859404Y-74152380D01*
X180668928Y-74152380D01*
X180573690Y-74104761D01*
X180478452Y-74009523D01*
X180430833Y-73819047D01*
X180430833Y-73485714D01*
X180478452Y-73295238D01*
X180573690Y-73200000D01*
X180668928Y-73152380D01*
X181478452Y-74104761D02*
X181621309Y-74152380D01*
X181859404Y-74152380D01*
X181954642Y-74104761D01*
X182002261Y-74057142D01*
X182049880Y-73961904D01*
X182049880Y-73866666D01*
X182002261Y-73771428D01*
X181954642Y-73723809D01*
X181859404Y-73676190D01*
X181668928Y-73628571D01*
X181573690Y-73580952D01*
X181526071Y-73533333D01*
X181478452Y-73438095D01*
X181478452Y-73342857D01*
X181526071Y-73247619D01*
X181573690Y-73200000D01*
X181668928Y-73152380D01*
X181907023Y-73152380D01*
X182049880Y-73200000D01*
X182478452Y-74152380D02*
X182478452Y-73152380D01*
X170537309Y-87788240D02*
X170975042Y-87350507D01*
X171008713Y-87855583D01*
X171109729Y-87754568D01*
X171210744Y-87720896D01*
X171278087Y-87720896D01*
X171379103Y-87754568D01*
X171547461Y-87922927D01*
X171581133Y-88023942D01*
X171581133Y-88091286D01*
X171547461Y-88192301D01*
X171345431Y-88394331D01*
X171244416Y-88428003D01*
X171177072Y-88428003D01*
X171177072Y-87148477D02*
X172119881Y-87619881D01*
X171648477Y-86677072D01*
X171816835Y-86508713D02*
X172254568Y-86070981D01*
X172288240Y-86576057D01*
X172389255Y-86475042D01*
X172490270Y-86441370D01*
X172557614Y-86441370D01*
X172658629Y-86475042D01*
X172826988Y-86643400D01*
X172860660Y-86744416D01*
X172860660Y-86811759D01*
X172826988Y-86912774D01*
X172624957Y-87114805D01*
X172523942Y-87148477D01*
X172456599Y-87148477D01*
X171008713Y-85490270D02*
X170773011Y-85725973D01*
X171143400Y-86096362D02*
X170436294Y-85389255D01*
X170773011Y-85052538D01*
X171749492Y-85490270D02*
X171042385Y-84783164D01*
X171951522Y-84547461D02*
X171715820Y-84783164D01*
X172086209Y-85153553D02*
X171379103Y-84446446D01*
X171715820Y-84109729D01*
X172119881Y-83705668D02*
X172254568Y-83570981D01*
X172355583Y-83537309D01*
X172490270Y-83537309D01*
X172658629Y-83638324D01*
X172894331Y-83874026D01*
X172995347Y-84042385D01*
X172995347Y-84177072D01*
X172961675Y-84278087D01*
X172826988Y-84412774D01*
X172725973Y-84446446D01*
X172591286Y-84446446D01*
X172422927Y-84345431D01*
X172187225Y-84109729D01*
X172086209Y-83941370D01*
X172086209Y-83806683D01*
X172119881Y-83705668D01*
X171581133Y-82923942D02*
X171581133Y-82991286D01*
X171513790Y-83125973D01*
X171446446Y-83193316D01*
X171311759Y-83260660D01*
X171177072Y-83260660D01*
X171076057Y-83226988D01*
X170907698Y-83125973D01*
X170806683Y-83024957D01*
X170705668Y-82856599D01*
X170671996Y-82755583D01*
X170671996Y-82620896D01*
X170739339Y-82486209D01*
X170806683Y-82418866D01*
X170941370Y-82351522D01*
X171008713Y-82351522D01*
X172288240Y-82216835D02*
X172288240Y-82284179D01*
X172220896Y-82418866D01*
X172153553Y-82486209D01*
X172018866Y-82553553D01*
X171884179Y-82553553D01*
X171783164Y-82519881D01*
X171614805Y-82418866D01*
X171513790Y-82317851D01*
X171412774Y-82149492D01*
X171379103Y-82048477D01*
X171379103Y-81913790D01*
X171446446Y-81779103D01*
X171513790Y-81711759D01*
X171648477Y-81644416D01*
X171715820Y-81644416D01*
X172591286Y-81981133D02*
X172725973Y-81913790D01*
X172894331Y-81745431D01*
X172928003Y-81644416D01*
X172928003Y-81577072D01*
X172894331Y-81476057D01*
X172826988Y-81408713D01*
X172725973Y-81375042D01*
X172658629Y-81375042D01*
X172557614Y-81408713D01*
X172389255Y-81509729D01*
X172288240Y-81543400D01*
X172220896Y-81543400D01*
X172119881Y-81509729D01*
X172052538Y-81442385D01*
X172018866Y-81341370D01*
X172018866Y-81274026D01*
X172052538Y-81173011D01*
X172220896Y-81004652D01*
X172355583Y-80937309D01*
X170638324Y-80760660D02*
X170874026Y-80524957D01*
X171345431Y-80794331D02*
X171008713Y-81131049D01*
X170301607Y-80423942D01*
X170638324Y-80087225D01*
X172052538Y-80087225D02*
X171480118Y-79986209D01*
X171648477Y-80491286D02*
X170941370Y-79784179D01*
X171210744Y-79514805D01*
X171311759Y-79481133D01*
X171379103Y-79481133D01*
X171480118Y-79514805D01*
X171581133Y-79615820D01*
X171614805Y-79716835D01*
X171614805Y-79784179D01*
X171581133Y-79885194D01*
X171311759Y-80154568D01*
X172288240Y-79784179D02*
X172422927Y-79716835D01*
X172591286Y-79548477D01*
X172624957Y-79447461D01*
X172624957Y-79380118D01*
X172591286Y-79279103D01*
X172523942Y-79211759D01*
X172422927Y-79178087D01*
X172355583Y-79178087D01*
X172254568Y-79211759D01*
X172086209Y-79312774D01*
X171985194Y-79346446D01*
X171917851Y-79346446D01*
X171816835Y-79312774D01*
X171749492Y-79245431D01*
X171715820Y-79144416D01*
X171715820Y-79077072D01*
X171749492Y-78976057D01*
X171917851Y-78807698D01*
X172052538Y-78740355D01*
X172220896Y-78504652D02*
X172624957Y-78100591D01*
X173130034Y-79009729D02*
X172422927Y-78302622D01*
X171008713Y-78531049D02*
X170301607Y-77823942D01*
X171042385Y-78093316D01*
X170773011Y-77352538D01*
X171480118Y-78059644D01*
X171816835Y-77722927D02*
X171109729Y-77015820D01*
X172086209Y-77386209D02*
X172220896Y-77318866D01*
X172389255Y-77150507D01*
X172422927Y-77049492D01*
X172422927Y-76982148D01*
X172389255Y-76881133D01*
X172321912Y-76813790D01*
X172220896Y-76780118D01*
X172153553Y-76780118D01*
X172052538Y-76813790D01*
X171884179Y-76914805D01*
X171783164Y-76948477D01*
X171715820Y-76948477D01*
X171614805Y-76914805D01*
X171547461Y-76847461D01*
X171513790Y-76746446D01*
X171513790Y-76679103D01*
X171547461Y-76578087D01*
X171715820Y-76409729D01*
X171850507Y-76342385D01*
X172254568Y-75870981D02*
X172389255Y-75736294D01*
X172490270Y-75702622D01*
X172624957Y-75702622D01*
X172793316Y-75803637D01*
X173029018Y-76039339D01*
X173130034Y-76207698D01*
X173130034Y-76342385D01*
X173096362Y-76443400D01*
X172961675Y-76578087D01*
X172860660Y-76611759D01*
X172725973Y-76611759D01*
X172557614Y-76510744D01*
X172321912Y-76275042D01*
X172220896Y-76106683D01*
X172220896Y-75971996D01*
X172254568Y-75870981D01*
X170890862Y-75981557D02*
X171025549Y-75914213D01*
X171193908Y-75745854D01*
X171227580Y-75644839D01*
X171227580Y-75577496D01*
X171193908Y-75476480D01*
X171126564Y-75409137D01*
X171025549Y-75375465D01*
X170958206Y-75375465D01*
X170857190Y-75409137D01*
X170688832Y-75510152D01*
X170587816Y-75543824D01*
X170520473Y-75543824D01*
X170419458Y-75510152D01*
X170352114Y-75442809D01*
X170318442Y-75341793D01*
X170318442Y-75274450D01*
X170352114Y-75173435D01*
X170520473Y-75005076D01*
X170655160Y-74937732D01*
X171968358Y-74836717D02*
X171968358Y-74904061D01*
X171901015Y-75038748D01*
X171833671Y-75106091D01*
X171698984Y-75173435D01*
X171564297Y-75173435D01*
X171463282Y-75139763D01*
X171294923Y-75038748D01*
X171193908Y-74937732D01*
X171092893Y-74769374D01*
X171059221Y-74668358D01*
X171059221Y-74533671D01*
X171126564Y-74398984D01*
X171193908Y-74331641D01*
X171328595Y-74264297D01*
X171395938Y-74264297D01*
X172675465Y-74264297D02*
X172338748Y-74601015D01*
X171631641Y-73893908D01*
X172911167Y-74028595D02*
X172204061Y-73321488D01*
X173315228Y-73624534D02*
X172608122Y-73523519D01*
X172608122Y-72917427D02*
X172608122Y-73725549D01*
D12*
%TO.C,BQ1*%
X190800000Y-84900000D02*
G75*
G03*
X190800000Y-84900000I-100000J0D01*
G01*
D11*
X190100000Y-85700000D02*
X190100000Y-87200000D01*
X190100000Y-87200000D02*
X186300000Y-87200000D01*
X186300000Y-87200000D02*
X186300000Y-84200000D01*
X186300000Y-84200000D02*
X190100000Y-84200000D01*
X190100000Y-84200000D02*
X190100000Y-85700000D01*
D13*
%TO.C,DA1*%
X194500000Y-83400000D02*
G75*
G03*
X194500000Y-83400000I-100000J0D01*
G01*
D14*
%TO.C,XP1*%
X173500000Y-72200000D02*
X176000000Y-72200000D01*
X173500000Y-87800000D02*
X173500000Y-72200000D01*
X178500000Y-87800000D02*
X173500000Y-87800000D01*
X178500000Y-72200000D02*
X178500000Y-87800000D01*
X176000000Y-72200000D02*
X178500000Y-72200000D01*
%TO.C,C5*%
D10*
X193216666Y-85085714D02*
X193178571Y-85123809D01*
X193064285Y-85161904D01*
X192988095Y-85161904D01*
X192873809Y-85123809D01*
X192797619Y-85047619D01*
X192759523Y-84971428D01*
X192721428Y-84819047D01*
X192721428Y-84704761D01*
X192759523Y-84552380D01*
X192797619Y-84476190D01*
X192873809Y-84400000D01*
X192988095Y-84361904D01*
X193064285Y-84361904D01*
X193178571Y-84400000D01*
X193216666Y-84438095D01*
X193940476Y-84361904D02*
X193559523Y-84361904D01*
X193521428Y-84742857D01*
X193559523Y-84704761D01*
X193635714Y-84666666D01*
X193826190Y-84666666D01*
X193902380Y-84704761D01*
X193940476Y-84742857D01*
X193978571Y-84819047D01*
X193978571Y-85009523D01*
X193940476Y-85085714D01*
X193902380Y-85123809D01*
X193826190Y-85161904D01*
X193635714Y-85161904D01*
X193559523Y-85123809D01*
X193521428Y-85085714D01*
%TO.C,BQ1*%
X187457142Y-87742857D02*
X187571428Y-87780952D01*
X187609523Y-87819047D01*
X187647619Y-87895238D01*
X187647619Y-88009523D01*
X187609523Y-88085714D01*
X187571428Y-88123809D01*
X187495238Y-88161904D01*
X187190476Y-88161904D01*
X187190476Y-87361904D01*
X187457142Y-87361904D01*
X187533333Y-87400000D01*
X187571428Y-87438095D01*
X187609523Y-87514285D01*
X187609523Y-87590476D01*
X187571428Y-87666666D01*
X187533333Y-87704761D01*
X187457142Y-87742857D01*
X187190476Y-87742857D01*
X188523809Y-88238095D02*
X188447619Y-88200000D01*
X188371428Y-88123809D01*
X188257142Y-88009523D01*
X188180952Y-87971428D01*
X188104761Y-87971428D01*
X188142857Y-88161904D02*
X188066666Y-88123809D01*
X187990476Y-88047619D01*
X187952380Y-87895238D01*
X187952380Y-87628571D01*
X187990476Y-87476190D01*
X188066666Y-87400000D01*
X188142857Y-87361904D01*
X188295238Y-87361904D01*
X188371428Y-87400000D01*
X188447619Y-87476190D01*
X188485714Y-87628571D01*
X188485714Y-87895238D01*
X188447619Y-88047619D01*
X188371428Y-88123809D01*
X188295238Y-88161904D01*
X188142857Y-88161904D01*
X189247619Y-88161904D02*
X188790476Y-88161904D01*
X189019047Y-88161904D02*
X189019047Y-87361904D01*
X188942857Y-87476190D01*
X188866666Y-87552380D01*
X188790476Y-87590476D01*
%TO.C,C1*%
X191166666Y-85035714D02*
X191128571Y-85073809D01*
X191014285Y-85111904D01*
X190938095Y-85111904D01*
X190823809Y-85073809D01*
X190747619Y-84997619D01*
X190709523Y-84921428D01*
X190671428Y-84769047D01*
X190671428Y-84654761D01*
X190709523Y-84502380D01*
X190747619Y-84426190D01*
X190823809Y-84350000D01*
X190938095Y-84311904D01*
X191014285Y-84311904D01*
X191128571Y-84350000D01*
X191166666Y-84388095D01*
X191928571Y-85111904D02*
X191471428Y-85111904D01*
X191700000Y-85111904D02*
X191700000Y-84311904D01*
X191623809Y-84426190D01*
X191547619Y-84502380D01*
X191471428Y-84540476D01*
%TO.C,C2*%
X183985714Y-85633333D02*
X184023809Y-85671428D01*
X184061904Y-85785714D01*
X184061904Y-85861904D01*
X184023809Y-85976190D01*
X183947619Y-86052380D01*
X183871428Y-86090476D01*
X183719047Y-86128571D01*
X183604761Y-86128571D01*
X183452380Y-86090476D01*
X183376190Y-86052380D01*
X183300000Y-85976190D01*
X183261904Y-85861904D01*
X183261904Y-85785714D01*
X183300000Y-85671428D01*
X183338095Y-85633333D01*
X183338095Y-85328571D02*
X183300000Y-85290476D01*
X183261904Y-85214285D01*
X183261904Y-85023809D01*
X183300000Y-84947619D01*
X183338095Y-84909523D01*
X183414285Y-84871428D01*
X183490476Y-84871428D01*
X183604761Y-84909523D01*
X184061904Y-85366666D01*
X184061904Y-84871428D01*
%TO.C,C3*%
X199066666Y-83485714D02*
X199028571Y-83523809D01*
X198914285Y-83561904D01*
X198838095Y-83561904D01*
X198723809Y-83523809D01*
X198647619Y-83447619D01*
X198609523Y-83371428D01*
X198571428Y-83219047D01*
X198571428Y-83104761D01*
X198609523Y-82952380D01*
X198647619Y-82876190D01*
X198723809Y-82800000D01*
X198838095Y-82761904D01*
X198914285Y-82761904D01*
X199028571Y-82800000D01*
X199066666Y-82838095D01*
X199333333Y-82761904D02*
X199828571Y-82761904D01*
X199561904Y-83066666D01*
X199676190Y-83066666D01*
X199752380Y-83104761D01*
X199790476Y-83142857D01*
X199828571Y-83219047D01*
X199828571Y-83409523D01*
X199790476Y-83485714D01*
X199752380Y-83523809D01*
X199676190Y-83561904D01*
X199447619Y-83561904D01*
X199371428Y-83523809D01*
X199333333Y-83485714D01*
%TO.C,C6*%
X190285714Y-74833333D02*
X190323809Y-74871428D01*
X190361904Y-74985714D01*
X190361904Y-75061904D01*
X190323809Y-75176190D01*
X190247619Y-75252380D01*
X190171428Y-75290476D01*
X190019047Y-75328571D01*
X189904761Y-75328571D01*
X189752380Y-75290476D01*
X189676190Y-75252380D01*
X189600000Y-75176190D01*
X189561904Y-75061904D01*
X189561904Y-74985714D01*
X189600000Y-74871428D01*
X189638095Y-74833333D01*
X189561904Y-74147619D02*
X189561904Y-74300000D01*
X189600000Y-74376190D01*
X189638095Y-74414285D01*
X189752380Y-74490476D01*
X189904761Y-74528571D01*
X190209523Y-74528571D01*
X190285714Y-74490476D01*
X190323809Y-74452380D01*
X190361904Y-74376190D01*
X190361904Y-74223809D01*
X190323809Y-74147619D01*
X190285714Y-74109523D01*
X190209523Y-74071428D01*
X190019047Y-74071428D01*
X189942857Y-74109523D01*
X189904761Y-74147619D01*
X189866666Y-74223809D01*
X189866666Y-74376190D01*
X189904761Y-74452380D01*
X189942857Y-74490476D01*
X190019047Y-74528571D01*
%TO.C,C7*%
X184366666Y-81685714D02*
X184328571Y-81723809D01*
X184214285Y-81761904D01*
X184138095Y-81761904D01*
X184023809Y-81723809D01*
X183947619Y-81647619D01*
X183909523Y-81571428D01*
X183871428Y-81419047D01*
X183871428Y-81304761D01*
X183909523Y-81152380D01*
X183947619Y-81076190D01*
X184023809Y-81000000D01*
X184138095Y-80961904D01*
X184214285Y-80961904D01*
X184328571Y-81000000D01*
X184366666Y-81038095D01*
X184633333Y-80961904D02*
X185166666Y-80961904D01*
X184823809Y-81761904D01*
%TO.C,C8*%
X182766666Y-76085714D02*
X182728571Y-76123809D01*
X182614285Y-76161904D01*
X182538095Y-76161904D01*
X182423809Y-76123809D01*
X182347619Y-76047619D01*
X182309523Y-75971428D01*
X182271428Y-75819047D01*
X182271428Y-75704761D01*
X182309523Y-75552380D01*
X182347619Y-75476190D01*
X182423809Y-75400000D01*
X182538095Y-75361904D01*
X182614285Y-75361904D01*
X182728571Y-75400000D01*
X182766666Y-75438095D01*
X183223809Y-75704761D02*
X183147619Y-75666666D01*
X183109523Y-75628571D01*
X183071428Y-75552380D01*
X183071428Y-75514285D01*
X183109523Y-75438095D01*
X183147619Y-75400000D01*
X183223809Y-75361904D01*
X183376190Y-75361904D01*
X183452380Y-75400000D01*
X183490476Y-75438095D01*
X183528571Y-75514285D01*
X183528571Y-75552380D01*
X183490476Y-75628571D01*
X183452380Y-75666666D01*
X183376190Y-75704761D01*
X183223809Y-75704761D01*
X183147619Y-75742857D01*
X183109523Y-75780952D01*
X183071428Y-75857142D01*
X183071428Y-76009523D01*
X183109523Y-76085714D01*
X183147619Y-76123809D01*
X183223809Y-76161904D01*
X183376190Y-76161904D01*
X183452380Y-76123809D01*
X183490476Y-76085714D01*
X183528571Y-76009523D01*
X183528571Y-75857142D01*
X183490476Y-75780952D01*
X183452380Y-75742857D01*
X183376190Y-75704761D01*
%TO.C,R1*%
X184661904Y-71233333D02*
X184280952Y-71500000D01*
X184661904Y-71690476D02*
X183861904Y-71690476D01*
X183861904Y-71385714D01*
X183900000Y-71309523D01*
X183938095Y-71271428D01*
X184014285Y-71233333D01*
X184128571Y-71233333D01*
X184204761Y-71271428D01*
X184242857Y-71309523D01*
X184280952Y-71385714D01*
X184280952Y-71690476D01*
X184661904Y-70471428D02*
X184661904Y-70928571D01*
X184661904Y-70700000D02*
X183861904Y-70700000D01*
X183976190Y-70776190D01*
X184052380Y-70852380D01*
X184090476Y-70928571D01*
%TO.C,R2*%
X186661904Y-71233333D02*
X186280952Y-71500000D01*
X186661904Y-71690476D02*
X185861904Y-71690476D01*
X185861904Y-71385714D01*
X185900000Y-71309523D01*
X185938095Y-71271428D01*
X186014285Y-71233333D01*
X186128571Y-71233333D01*
X186204761Y-71271428D01*
X186242857Y-71309523D01*
X186280952Y-71385714D01*
X186280952Y-71690476D01*
X185938095Y-70928571D02*
X185900000Y-70890476D01*
X185861904Y-70814285D01*
X185861904Y-70623809D01*
X185900000Y-70547619D01*
X185938095Y-70509523D01*
X186014285Y-70471428D01*
X186090476Y-70471428D01*
X186204761Y-70509523D01*
X186661904Y-70966666D01*
X186661904Y-70471428D01*
%TO.C,R3*%
X182661904Y-71233333D02*
X182280952Y-71500000D01*
X182661904Y-71690476D02*
X181861904Y-71690476D01*
X181861904Y-71385714D01*
X181900000Y-71309523D01*
X181938095Y-71271428D01*
X182014285Y-71233333D01*
X182128571Y-71233333D01*
X182204761Y-71271428D01*
X182242857Y-71309523D01*
X182280952Y-71385714D01*
X182280952Y-71690476D01*
X181861904Y-70966666D02*
X181861904Y-70471428D01*
X182166666Y-70738095D01*
X182166666Y-70623809D01*
X182204761Y-70547619D01*
X182242857Y-70509523D01*
X182319047Y-70471428D01*
X182509523Y-70471428D01*
X182585714Y-70509523D01*
X182623809Y-70547619D01*
X182661904Y-70623809D01*
X182661904Y-70852380D01*
X182623809Y-70928571D01*
X182585714Y-70966666D01*
%TO.C,R4*%
X188661904Y-71233333D02*
X188280952Y-71500000D01*
X188661904Y-71690476D02*
X187861904Y-71690476D01*
X187861904Y-71385714D01*
X187900000Y-71309523D01*
X187938095Y-71271428D01*
X188014285Y-71233333D01*
X188128571Y-71233333D01*
X188204761Y-71271428D01*
X188242857Y-71309523D01*
X188280952Y-71385714D01*
X188280952Y-71690476D01*
X188128571Y-70547619D02*
X188661904Y-70547619D01*
X187823809Y-70738095D02*
X188395238Y-70928571D01*
X188395238Y-70433333D01*
%TO.C,R5*%
X180661904Y-71233333D02*
X180280952Y-71500000D01*
X180661904Y-71690476D02*
X179861904Y-71690476D01*
X179861904Y-71385714D01*
X179900000Y-71309523D01*
X179938095Y-71271428D01*
X180014285Y-71233333D01*
X180128571Y-71233333D01*
X180204761Y-71271428D01*
X180242857Y-71309523D01*
X180280952Y-71385714D01*
X180280952Y-71690476D01*
X179861904Y-70509523D02*
X179861904Y-70890476D01*
X180242857Y-70928571D01*
X180204761Y-70890476D01*
X180166666Y-70814285D01*
X180166666Y-70623809D01*
X180204761Y-70547619D01*
X180242857Y-70509523D01*
X180319047Y-70471428D01*
X180509523Y-70471428D01*
X180585714Y-70509523D01*
X180623809Y-70547619D01*
X180661904Y-70623809D01*
X180661904Y-70814285D01*
X180623809Y-70890476D01*
X180585714Y-70928571D01*
%TO.C,XP1*%
X174952380Y-71261904D02*
X175485714Y-72061904D01*
X175485714Y-71261904D02*
X174952380Y-72061904D01*
X175790476Y-72061904D02*
X175790476Y-71261904D01*
X176095238Y-71261904D01*
X176171428Y-71300000D01*
X176209523Y-71338095D01*
X176247619Y-71414285D01*
X176247619Y-71528571D01*
X176209523Y-71604761D01*
X176171428Y-71642857D01*
X176095238Y-71680952D01*
X175790476Y-71680952D01*
X177009523Y-72061904D02*
X176552380Y-72061904D01*
X176780952Y-72061904D02*
X176780952Y-71261904D01*
X176704761Y-71376190D01*
X176628571Y-71452380D01*
X176552380Y-71490476D01*
%TO.C,XS1*%
D11*
X209814285Y-74702380D02*
X210480952Y-75702380D01*
X210480952Y-74702380D02*
X209814285Y-75702380D01*
X210814285Y-75654761D02*
X210957142Y-75702380D01*
X211195238Y-75702380D01*
X211290476Y-75654761D01*
X211338095Y-75607142D01*
X211385714Y-75511904D01*
X211385714Y-75416666D01*
X211338095Y-75321428D01*
X211290476Y-75273809D01*
X211195238Y-75226190D01*
X211004761Y-75178571D01*
X210909523Y-75130952D01*
X210861904Y-75083333D01*
X210814285Y-74988095D01*
X210814285Y-74892857D01*
X210861904Y-74797619D01*
X210909523Y-74750000D01*
X211004761Y-74702380D01*
X211242857Y-74702380D01*
X211385714Y-74750000D01*
X212338095Y-75702380D02*
X211766666Y-75702380D01*
X212052380Y-75702380D02*
X212052380Y-74702380D01*
X211957142Y-74845238D01*
X211861904Y-74940476D01*
X211766666Y-74988095D01*
%TO.C,C10*%
D10*
X201985714Y-84835714D02*
X201947619Y-84873809D01*
X201833333Y-84911904D01*
X201757142Y-84911904D01*
X201642857Y-84873809D01*
X201566666Y-84797619D01*
X201528571Y-84721428D01*
X201490476Y-84569047D01*
X201490476Y-84454761D01*
X201528571Y-84302380D01*
X201566666Y-84226190D01*
X201642857Y-84150000D01*
X201757142Y-84111904D01*
X201833333Y-84111904D01*
X201947619Y-84150000D01*
X201985714Y-84188095D01*
X202747619Y-84911904D02*
X202290476Y-84911904D01*
X202519047Y-84911904D02*
X202519047Y-84111904D01*
X202442857Y-84226190D01*
X202366666Y-84302380D01*
X202290476Y-84340476D01*
X203242857Y-84111904D02*
X203319047Y-84111904D01*
X203395238Y-84150000D01*
X203433333Y-84188095D01*
X203471428Y-84264285D01*
X203509523Y-84416666D01*
X203509523Y-84607142D01*
X203471428Y-84759523D01*
X203433333Y-84835714D01*
X203395238Y-84873809D01*
X203319047Y-84911904D01*
X203242857Y-84911904D01*
X203166666Y-84873809D01*
X203128571Y-84835714D01*
X203090476Y-84759523D01*
X203052380Y-84607142D01*
X203052380Y-84416666D01*
X203090476Y-84264285D01*
X203128571Y-84188095D01*
X203166666Y-84150000D01*
X203242857Y-84111904D01*
%TO.C,C11*%
X203285714Y-76435714D02*
X203247619Y-76473809D01*
X203133333Y-76511904D01*
X203057142Y-76511904D01*
X202942857Y-76473809D01*
X202866666Y-76397619D01*
X202828571Y-76321428D01*
X202790476Y-76169047D01*
X202790476Y-76054761D01*
X202828571Y-75902380D01*
X202866666Y-75826190D01*
X202942857Y-75750000D01*
X203057142Y-75711904D01*
X203133333Y-75711904D01*
X203247619Y-75750000D01*
X203285714Y-75788095D01*
X204047619Y-76511904D02*
X203590476Y-76511904D01*
X203819047Y-76511904D02*
X203819047Y-75711904D01*
X203742857Y-75826190D01*
X203666666Y-75902380D01*
X203590476Y-75940476D01*
X204809523Y-76511904D02*
X204352380Y-76511904D01*
X204580952Y-76511904D02*
X204580952Y-75711904D01*
X204504761Y-75826190D01*
X204428571Y-75902380D01*
X204352380Y-75940476D01*
%TO.C,C12*%
X203735714Y-78485714D02*
X203697619Y-78523809D01*
X203583333Y-78561904D01*
X203507142Y-78561904D01*
X203392857Y-78523809D01*
X203316666Y-78447619D01*
X203278571Y-78371428D01*
X203240476Y-78219047D01*
X203240476Y-78104761D01*
X203278571Y-77952380D01*
X203316666Y-77876190D01*
X203392857Y-77800000D01*
X203507142Y-77761904D01*
X203583333Y-77761904D01*
X203697619Y-77800000D01*
X203735714Y-77838095D01*
X204497619Y-78561904D02*
X204040476Y-78561904D01*
X204269047Y-78561904D02*
X204269047Y-77761904D01*
X204192857Y-77876190D01*
X204116666Y-77952380D01*
X204040476Y-77990476D01*
X204802380Y-77838095D02*
X204840476Y-77800000D01*
X204916666Y-77761904D01*
X205107142Y-77761904D01*
X205183333Y-77800000D01*
X205221428Y-77838095D01*
X205259523Y-77914285D01*
X205259523Y-77990476D01*
X205221428Y-78104761D01*
X204764285Y-78561904D01*
X205259523Y-78561904D01*
%TO.C,L1*%
X196061904Y-79733333D02*
X196061904Y-80114285D01*
X195261904Y-80114285D01*
X196061904Y-79047619D02*
X196061904Y-79504761D01*
X196061904Y-79276190D02*
X195261904Y-79276190D01*
X195376190Y-79352380D01*
X195452380Y-79428571D01*
X195490476Y-79504761D01*
%TD*%
M02*
