%TF.GenerationSoftware,KiCad,Pcbnew,5.1.9-1.fc33*%
%TF.CreationDate,2021-03-04T20:35:35+03:00*%
%TF.ProjectId,CC2420_module,43433234-3230-45f6-9d6f-64756c652e6b,rev?*%
%TF.SameCoordinates,Original*%
%TF.FileFunction,Copper,L2,Bot*%
%TF.FilePolarity,Positive*%
%FSLAX46Y46*%
G04 Gerber Fmt 4.6, Leading zero omitted, Abs format (unit mm)*
G04 Created by KiCad (PCBNEW 5.1.9-1.fc33) date 2021-03-04 20:35:35*
%MOMM*%
%LPD*%
G01*
G04 APERTURE LIST*
%TA.AperFunction,ComponentPad*%
%ADD10C,0.643750*%
%TD*%
%TA.AperFunction,ComponentPad*%
%ADD11C,1.600000*%
%TD*%
%TA.AperFunction,ComponentPad*%
%ADD12C,2.400000*%
%TD*%
%TA.AperFunction,ViaPad*%
%ADD13C,0.600000*%
%TD*%
%TA.AperFunction,Conductor*%
%ADD14C,0.200000*%
%TD*%
%TA.AperFunction,Conductor*%
%ADD15C,0.100000*%
%TD*%
G04 APERTURE END LIST*
D10*
%TO.P,DA1,49*%
%TO.N,/GND*%
X192931250Y-81831250D03*
X192931250Y-80543750D03*
X192931250Y-79256250D03*
X192931250Y-77968750D03*
X191643750Y-81831250D03*
X191643750Y-80543750D03*
X191643750Y-79256250D03*
X191643750Y-77968750D03*
X190356250Y-81831250D03*
X190356250Y-80543750D03*
X190356250Y-79256250D03*
X190356250Y-77968750D03*
X189068750Y-81831250D03*
X189068750Y-80543750D03*
X189068750Y-79256250D03*
X189068750Y-77968750D03*
%TD*%
D11*
%TO.P,XP1,2*%
%TO.N,/MOSI*%
X177270000Y-73650000D03*
%TO.P,XP1,1*%
%TO.N,/SCLK*%
%TA.AperFunction,ComponentPad*%
G36*
G01*
X174280000Y-72750000D02*
X175180000Y-72750000D01*
G75*
G02*
X175630000Y-73200000I0J-450000D01*
G01*
X175630000Y-74100000D01*
G75*
G02*
X175180000Y-74550000I-450000J0D01*
G01*
X174280000Y-74550000D01*
G75*
G02*
X173830000Y-74100000I0J450000D01*
G01*
X173830000Y-73200000D01*
G75*
G02*
X174280000Y-72750000I450000J0D01*
G01*
G37*
%TD.AperFunction*%
%TO.P,XP1,4*%
%TO.N,/CS*%
X177270000Y-76190000D03*
%TO.P,XP1,3*%
%TO.N,/MISO*%
X174730000Y-76190000D03*
%TO.P,XP1,6*%
%TO.N,/SFD*%
X177270000Y-78730000D03*
%TO.P,XP1,5*%
%TO.N,/EXTRST*%
X174730000Y-78730000D03*
%TO.P,XP1,8*%
%TO.N,/FIFOP*%
X177270000Y-81270000D03*
%TO.P,XP1,7*%
%TO.N,/CCS*%
X174730000Y-81270000D03*
%TO.P,XP1,10*%
%TO.N,/VREG_EN*%
X177270000Y-83810000D03*
%TO.P,XP1,9*%
%TO.N,/FIFO*%
X174730000Y-83810000D03*
%TO.P,XP1,12*%
%TO.N,/GND*%
X177270000Y-86350000D03*
%TO.P,XP1,11*%
%TO.N,/3V3*%
X174730000Y-86350000D03*
%TD*%
D12*
%TO.P,XS1,4*%
%TO.N,/GND*%
X208560000Y-77110000D03*
%TO.P,XS1,1*%
X208560000Y-82190000D03*
%TO.P,XS1,3*%
X213640000Y-77110000D03*
%TO.P,XS1,2*%
X213640000Y-82190000D03*
%TO.P,XS1,5*%
%TO.N,Net-(C12-Pad1)*%
X211100000Y-79650000D03*
%TD*%
D13*
%TO.N,/GND*%
X183050000Y-76450000D03*
X199100000Y-83200000D03*
X189100000Y-73400000D03*
X191200000Y-73100000D03*
X203250000Y-82150000D03*
X203050000Y-76150000D03*
%TO.N,/1V8*%
X191250000Y-84900000D03*
X195200000Y-86700000D03*
X196700000Y-83200000D03*
X185400000Y-75900000D03*
X194500000Y-74700000D03*
X186600000Y-82800000D03*
%TO.N,/3V3*%
X193100000Y-86700000D03*
X197100000Y-74800000D03*
%TO.N,/EXTRST*%
X189600000Y-74600000D03*
X180300000Y-71224990D03*
%TO.N,/SFD*%
X185100000Y-77299994D03*
%TO.N,/CCS*%
X185100000Y-78099997D03*
%TO.N,/FIFOP*%
X185100000Y-78900000D03*
X181600000Y-82400000D03*
%TO.N,/FIFO*%
X185700000Y-79550000D03*
%TO.N,/SCLK*%
X181224265Y-79675735D03*
%TO.N,/VREG_EN*%
X190228555Y-84071445D03*
X181850000Y-84500000D03*
%TO.N,Net-(C11-Pad2)*%
X198750000Y-78600000D03*
X198750000Y-76900000D03*
%TD*%
D14*
%TO.N,/GND*%
X191643750Y-80543750D02*
X192931250Y-80543750D01*
%TO.N,/1V8*%
X193400000Y-84900000D02*
X195200000Y-86700000D01*
X191250000Y-84900000D02*
X193400000Y-84900000D01*
X185400000Y-75900000D02*
X185900000Y-75400000D01*
X193800000Y-75400000D02*
X194500000Y-74700000D01*
X185900000Y-75400000D02*
X193800000Y-75400000D01*
X186600000Y-77100000D02*
X185400000Y-75900000D01*
X186600000Y-82800000D02*
X186600000Y-77100000D01*
X191250000Y-84900000D02*
X191250000Y-84050000D01*
X191250000Y-84050000D02*
X190500000Y-83300000D01*
X187100000Y-83300000D02*
X186600000Y-82800000D01*
X190500000Y-83300000D02*
X187100000Y-83300000D01*
X196700000Y-86653700D02*
X195653690Y-87700011D01*
X196700000Y-83200000D02*
X196700000Y-86653700D01*
X193212009Y-87700011D02*
X191250000Y-85738002D01*
X191250000Y-85738002D02*
X191250000Y-84900000D01*
X195653690Y-87700011D02*
X193212009Y-87700011D01*
%TO.N,/3V3*%
X193100000Y-86700000D02*
X194100000Y-86700000D01*
X194700001Y-87300001D02*
X195488001Y-87300001D01*
X194100000Y-86700000D02*
X194700001Y-87300001D01*
X195488001Y-87300001D02*
X195900000Y-86888002D01*
X195900000Y-76000000D02*
X197100000Y-74800000D01*
X195900000Y-86888002D02*
X195900000Y-76000000D01*
%TO.N,/EXTRST*%
X189600000Y-74600000D02*
X184400000Y-74600000D01*
X183675010Y-74600000D02*
X180300000Y-71224990D01*
X184400000Y-74600000D02*
X183675010Y-74600000D01*
%TO.N,/SFD*%
X185100000Y-77299994D02*
X184700006Y-77299994D01*
X178815736Y-80275736D02*
X177270000Y-78730000D01*
X181724264Y-80275736D02*
X178815736Y-80275736D01*
X184700006Y-77299994D02*
X181724264Y-80275736D01*
%TO.N,/CCS*%
X185100000Y-78099997D02*
X184700003Y-78099997D01*
X175830001Y-82370001D02*
X174730000Y-81270000D01*
X180429999Y-82370001D02*
X175830001Y-82370001D01*
X184700003Y-78099997D02*
X180429999Y-82370001D01*
%TO.N,/FIFOP*%
X185100000Y-78900000D02*
X181600000Y-82400000D01*
%TO.N,/FIFO*%
X175830001Y-84910001D02*
X174730000Y-83810000D01*
X180339999Y-84910001D02*
X175830001Y-84910001D01*
X185700000Y-79550000D02*
X180339999Y-84910001D01*
%TO.N,/SCLK*%
X175830001Y-74750001D02*
X174730000Y-73650000D01*
X176951998Y-77500000D02*
X175830001Y-76378003D01*
X179048530Y-77500000D02*
X176951998Y-77500000D01*
X175830001Y-76378003D02*
X175830001Y-74750001D01*
X181224265Y-79675735D02*
X179048530Y-77500000D01*
%TO.N,/VREG_EN*%
X190228555Y-84071445D02*
X189800000Y-84500000D01*
X189800000Y-84500000D02*
X181850000Y-84500000D01*
%TO.N,Net-(C11-Pad2)*%
X198750000Y-78600000D02*
X198750000Y-76900000D01*
%TD*%
%TO.N,/GND*%
X218400000Y-88400000D02*
X170600000Y-88400000D01*
X170600000Y-86241659D01*
X173630000Y-86241659D01*
X173630000Y-86458341D01*
X173672273Y-86670858D01*
X173755193Y-86871045D01*
X173875575Y-87051209D01*
X174028791Y-87204425D01*
X174208955Y-87324807D01*
X174409142Y-87407727D01*
X174621659Y-87450000D01*
X174838341Y-87450000D01*
X175050858Y-87407727D01*
X175251045Y-87324807D01*
X175431209Y-87204425D01*
X175512928Y-87122706D01*
X176532650Y-87122706D01*
X176611160Y-87299347D01*
X176809029Y-87409639D01*
X177024611Y-87479210D01*
X177249624Y-87505386D01*
X177475420Y-87487161D01*
X177693322Y-87425235D01*
X177894956Y-87321988D01*
X177928840Y-87299347D01*
X178007350Y-87122706D01*
X177270000Y-86385355D01*
X176532650Y-87122706D01*
X175512928Y-87122706D01*
X175584425Y-87051209D01*
X175704807Y-86871045D01*
X175787727Y-86670858D01*
X175830000Y-86458341D01*
X175830000Y-86329624D01*
X176114614Y-86329624D01*
X176132839Y-86555420D01*
X176194765Y-86773322D01*
X176298012Y-86974956D01*
X176320653Y-87008840D01*
X176497294Y-87087350D01*
X177234645Y-86350000D01*
X177305355Y-86350000D01*
X178042706Y-87087350D01*
X178219347Y-87008840D01*
X178329639Y-86810971D01*
X178399210Y-86595389D01*
X178425386Y-86370376D01*
X178407161Y-86144580D01*
X178345235Y-85926678D01*
X178241988Y-85725044D01*
X178219347Y-85691160D01*
X178042706Y-85612650D01*
X177305355Y-86350000D01*
X177234645Y-86350000D01*
X176497294Y-85612650D01*
X176320653Y-85691160D01*
X176210361Y-85889029D01*
X176140790Y-86104611D01*
X176114614Y-86329624D01*
X175830000Y-86329624D01*
X175830000Y-86241659D01*
X175787727Y-86029142D01*
X175704807Y-85828955D01*
X175584425Y-85648791D01*
X175431209Y-85495575D01*
X175251045Y-85375193D01*
X175050858Y-85292273D01*
X174838341Y-85250000D01*
X174621659Y-85250000D01*
X174409142Y-85292273D01*
X174208955Y-85375193D01*
X174028791Y-85495575D01*
X173875575Y-85648791D01*
X173755193Y-85828955D01*
X173672273Y-86029142D01*
X173630000Y-86241659D01*
X170600000Y-86241659D01*
X170600000Y-78621659D01*
X173630000Y-78621659D01*
X173630000Y-78838341D01*
X173672273Y-79050858D01*
X173755193Y-79251045D01*
X173875575Y-79431209D01*
X174028791Y-79584425D01*
X174208955Y-79704807D01*
X174409142Y-79787727D01*
X174621659Y-79830000D01*
X174838341Y-79830000D01*
X175050858Y-79787727D01*
X175251045Y-79704807D01*
X175431209Y-79584425D01*
X175584425Y-79431209D01*
X175704807Y-79251045D01*
X175787727Y-79050858D01*
X175830000Y-78838341D01*
X175830000Y-78621659D01*
X175787727Y-78409142D01*
X175704807Y-78208955D01*
X175584425Y-78028791D01*
X175431209Y-77875575D01*
X175251045Y-77755193D01*
X175050858Y-77672273D01*
X174838341Y-77630000D01*
X174621659Y-77630000D01*
X174409142Y-77672273D01*
X174208955Y-77755193D01*
X174028791Y-77875575D01*
X173875575Y-78028791D01*
X173755193Y-78208955D01*
X173672273Y-78409142D01*
X173630000Y-78621659D01*
X170600000Y-78621659D01*
X170600000Y-73200000D01*
X173528549Y-73200000D01*
X173528549Y-74100000D01*
X173542988Y-74246601D01*
X173585750Y-74387568D01*
X173655191Y-74517484D01*
X173748644Y-74631356D01*
X173862516Y-74724809D01*
X173992432Y-74794250D01*
X174133399Y-74837012D01*
X174280000Y-74851451D01*
X175180000Y-74851451D01*
X175326601Y-74837012D01*
X175345572Y-74831257D01*
X175430002Y-74915688D01*
X175430002Y-75334768D01*
X175251045Y-75215193D01*
X175050858Y-75132273D01*
X174838341Y-75090000D01*
X174621659Y-75090000D01*
X174409142Y-75132273D01*
X174208955Y-75215193D01*
X174028791Y-75335575D01*
X173875575Y-75488791D01*
X173755193Y-75668955D01*
X173672273Y-75869142D01*
X173630000Y-76081659D01*
X173630000Y-76298341D01*
X173672273Y-76510858D01*
X173755193Y-76711045D01*
X173875575Y-76891209D01*
X174028791Y-77044425D01*
X174208955Y-77164807D01*
X174409142Y-77247727D01*
X174621659Y-77290000D01*
X174838341Y-77290000D01*
X175050858Y-77247727D01*
X175251045Y-77164807D01*
X175431209Y-77044425D01*
X175584425Y-76891209D01*
X175661769Y-76775456D01*
X176655261Y-77768948D01*
X176667787Y-77784211D01*
X176684724Y-77798111D01*
X176568791Y-77875575D01*
X176415575Y-78028791D01*
X176295193Y-78208955D01*
X176212273Y-78409142D01*
X176170000Y-78621659D01*
X176170000Y-78838341D01*
X176212273Y-79050858D01*
X176295193Y-79251045D01*
X176415575Y-79431209D01*
X176568791Y-79584425D01*
X176748955Y-79704807D01*
X176949142Y-79787727D01*
X177161659Y-79830000D01*
X177378341Y-79830000D01*
X177590858Y-79787727D01*
X177711903Y-79737589D01*
X178519003Y-80544689D01*
X178531525Y-80559947D01*
X178546783Y-80572469D01*
X178546785Y-80572471D01*
X178554869Y-80579105D01*
X178592433Y-80609933D01*
X178661922Y-80647076D01*
X178737322Y-80669948D01*
X178778291Y-80673983D01*
X178815736Y-80677671D01*
X178835383Y-80675736D01*
X181558579Y-80675736D01*
X180264314Y-81970001D01*
X178125232Y-81970001D01*
X178244807Y-81791045D01*
X178327727Y-81590858D01*
X178370000Y-81378341D01*
X178370000Y-81161659D01*
X178327727Y-80949142D01*
X178244807Y-80748955D01*
X178124425Y-80568791D01*
X177971209Y-80415575D01*
X177791045Y-80295193D01*
X177590858Y-80212273D01*
X177378341Y-80170000D01*
X177161659Y-80170000D01*
X176949142Y-80212273D01*
X176748955Y-80295193D01*
X176568791Y-80415575D01*
X176415575Y-80568791D01*
X176295193Y-80748955D01*
X176212273Y-80949142D01*
X176170000Y-81161659D01*
X176170000Y-81378341D01*
X176212273Y-81590858D01*
X176295193Y-81791045D01*
X176414768Y-81970001D01*
X175995687Y-81970001D01*
X175737589Y-81711903D01*
X175787727Y-81590858D01*
X175830000Y-81378341D01*
X175830000Y-81161659D01*
X175787727Y-80949142D01*
X175704807Y-80748955D01*
X175584425Y-80568791D01*
X175431209Y-80415575D01*
X175251045Y-80295193D01*
X175050858Y-80212273D01*
X174838341Y-80170000D01*
X174621659Y-80170000D01*
X174409142Y-80212273D01*
X174208955Y-80295193D01*
X174028791Y-80415575D01*
X173875575Y-80568791D01*
X173755193Y-80748955D01*
X173672273Y-80949142D01*
X173630000Y-81161659D01*
X173630000Y-81378341D01*
X173672273Y-81590858D01*
X173755193Y-81791045D01*
X173875575Y-81971209D01*
X174028791Y-82124425D01*
X174208955Y-82244807D01*
X174409142Y-82327727D01*
X174621659Y-82370000D01*
X174838341Y-82370000D01*
X175050858Y-82327727D01*
X175171903Y-82277589D01*
X175533268Y-82638954D01*
X175545790Y-82654212D01*
X175561048Y-82666734D01*
X175561050Y-82666736D01*
X175592983Y-82692942D01*
X175606698Y-82704198D01*
X175676187Y-82741341D01*
X175751587Y-82764213D01*
X175810354Y-82770001D01*
X175810364Y-82770001D01*
X175830000Y-82771935D01*
X175849636Y-82770001D01*
X176906343Y-82770001D01*
X176748955Y-82835193D01*
X176568791Y-82955575D01*
X176415575Y-83108791D01*
X176295193Y-83288955D01*
X176212273Y-83489142D01*
X176170000Y-83701659D01*
X176170000Y-83918341D01*
X176212273Y-84130858D01*
X176295193Y-84331045D01*
X176414768Y-84510001D01*
X175995687Y-84510001D01*
X175737589Y-84251903D01*
X175787727Y-84130858D01*
X175830000Y-83918341D01*
X175830000Y-83701659D01*
X175787727Y-83489142D01*
X175704807Y-83288955D01*
X175584425Y-83108791D01*
X175431209Y-82955575D01*
X175251045Y-82835193D01*
X175050858Y-82752273D01*
X174838341Y-82710000D01*
X174621659Y-82710000D01*
X174409142Y-82752273D01*
X174208955Y-82835193D01*
X174028791Y-82955575D01*
X173875575Y-83108791D01*
X173755193Y-83288955D01*
X173672273Y-83489142D01*
X173630000Y-83701659D01*
X173630000Y-83918341D01*
X173672273Y-84130858D01*
X173755193Y-84331045D01*
X173875575Y-84511209D01*
X174028791Y-84664425D01*
X174208955Y-84784807D01*
X174409142Y-84867727D01*
X174621659Y-84910000D01*
X174838341Y-84910000D01*
X175050858Y-84867727D01*
X175171903Y-84817589D01*
X175533268Y-85178954D01*
X175545790Y-85194212D01*
X175561048Y-85206734D01*
X175561050Y-85206736D01*
X175568487Y-85212839D01*
X175606698Y-85244198D01*
X175676187Y-85281341D01*
X175751587Y-85304213D01*
X175810354Y-85310001D01*
X175810364Y-85310001D01*
X175830000Y-85311935D01*
X175849636Y-85310001D01*
X176777865Y-85310001D01*
X176645044Y-85378012D01*
X176611160Y-85400653D01*
X176532650Y-85577294D01*
X177270000Y-86314645D01*
X178007350Y-85577294D01*
X177928840Y-85400653D01*
X177766206Y-85310001D01*
X180320353Y-85310001D01*
X180339999Y-85311936D01*
X180359645Y-85310001D01*
X180359646Y-85310001D01*
X180418413Y-85304213D01*
X180493813Y-85281341D01*
X180563302Y-85244198D01*
X180624210Y-85194212D01*
X180636736Y-85178949D01*
X181251093Y-84564592D01*
X181273058Y-84675014D01*
X181318287Y-84784207D01*
X181383950Y-84882478D01*
X181467522Y-84966050D01*
X181565793Y-85031713D01*
X181674986Y-85076942D01*
X181790905Y-85100000D01*
X181909095Y-85100000D01*
X182025014Y-85076942D01*
X182134207Y-85031713D01*
X182232478Y-84966050D01*
X182298528Y-84900000D01*
X189780354Y-84900000D01*
X189800000Y-84901935D01*
X189819646Y-84900000D01*
X189819647Y-84900000D01*
X189878414Y-84894212D01*
X189953814Y-84871340D01*
X190023303Y-84834197D01*
X190084211Y-84784211D01*
X190096737Y-84768948D01*
X190194240Y-84671445D01*
X190287650Y-84671445D01*
X190403569Y-84648387D01*
X190512762Y-84603158D01*
X190611033Y-84537495D01*
X190694605Y-84453923D01*
X190760268Y-84355652D01*
X190805497Y-84246459D01*
X190817986Y-84183672D01*
X190850001Y-84215687D01*
X190850001Y-84451471D01*
X190783950Y-84517522D01*
X190718287Y-84615793D01*
X190673058Y-84724986D01*
X190650000Y-84840905D01*
X190650000Y-84959095D01*
X190673058Y-85075014D01*
X190718287Y-85184207D01*
X190783950Y-85282478D01*
X190850000Y-85348528D01*
X190850000Y-85718355D01*
X190848065Y-85738002D01*
X190850000Y-85757648D01*
X190855788Y-85816415D01*
X190878660Y-85891815D01*
X190915803Y-85961304D01*
X190965789Y-86022213D01*
X190981052Y-86034739D01*
X192915272Y-87968959D01*
X192927798Y-87984222D01*
X192943059Y-87996746D01*
X192988706Y-88034208D01*
X193058195Y-88071351D01*
X193133595Y-88094223D01*
X193212009Y-88101946D01*
X193231656Y-88100011D01*
X195634044Y-88100011D01*
X195653690Y-88101946D01*
X195673334Y-88100011D01*
X195673337Y-88100011D01*
X195732104Y-88094223D01*
X195807504Y-88071351D01*
X195876993Y-88034208D01*
X195937901Y-87984222D01*
X195950427Y-87968959D01*
X196968953Y-86950433D01*
X196984211Y-86937911D01*
X197009047Y-86907649D01*
X197034196Y-86877004D01*
X197035260Y-86875014D01*
X197071340Y-86807514D01*
X197094212Y-86732114D01*
X197100000Y-86673347D01*
X197100000Y-86673337D01*
X197101934Y-86653701D01*
X197100000Y-86634065D01*
X197100000Y-83648528D01*
X197166050Y-83582478D01*
X197231713Y-83484207D01*
X197276942Y-83375014D01*
X197300000Y-83259095D01*
X197300000Y-83140905D01*
X197276942Y-83024986D01*
X197231713Y-82915793D01*
X197166050Y-82817522D01*
X197082478Y-82733950D01*
X196984207Y-82668287D01*
X196875014Y-82623058D01*
X196759095Y-82600000D01*
X196640905Y-82600000D01*
X196524986Y-82623058D01*
X196415793Y-82668287D01*
X196317522Y-82733950D01*
X196300000Y-82751472D01*
X196300000Y-82027704D01*
X201462861Y-84092848D01*
X201480491Y-84098079D01*
X201500000Y-84100000D01*
X204000000Y-84100000D01*
X204019509Y-84098079D01*
X204038268Y-84092388D01*
X204055557Y-84083147D01*
X204070711Y-84070711D01*
X204083147Y-84055557D01*
X204092388Y-84038268D01*
X204098079Y-84019509D01*
X204100000Y-84000000D01*
X204100000Y-83246974D01*
X207538381Y-83246974D01*
X207664868Y-83464576D01*
X207930725Y-83614716D01*
X208220765Y-83710106D01*
X208523841Y-83747080D01*
X208828307Y-83724215D01*
X209122462Y-83642391D01*
X209395002Y-83504753D01*
X209455132Y-83464576D01*
X209581619Y-83246974D01*
X212618381Y-83246974D01*
X212744868Y-83464576D01*
X213010725Y-83614716D01*
X213300765Y-83710106D01*
X213603841Y-83747080D01*
X213908307Y-83724215D01*
X214202462Y-83642391D01*
X214475002Y-83504753D01*
X214535132Y-83464576D01*
X214661619Y-83246974D01*
X213640000Y-82225355D01*
X212618381Y-83246974D01*
X209581619Y-83246974D01*
X208560000Y-82225355D01*
X207538381Y-83246974D01*
X204100000Y-83246974D01*
X204100000Y-81100000D01*
X207448047Y-81100000D01*
X207441344Y-81106703D01*
X207503024Y-81168382D01*
X207285424Y-81294868D01*
X207135284Y-81560725D01*
X207039894Y-81850765D01*
X207002920Y-82153841D01*
X207025785Y-82458307D01*
X207107609Y-82752462D01*
X207245247Y-83025002D01*
X207285424Y-83085132D01*
X207503026Y-83211619D01*
X208524645Y-82190000D01*
X208510503Y-82175858D01*
X208545858Y-82140503D01*
X208560000Y-82154645D01*
X208574143Y-82140503D01*
X208609498Y-82175858D01*
X208595355Y-82190000D01*
X209616974Y-83211619D01*
X209834576Y-83085132D01*
X209984716Y-82819275D01*
X210080106Y-82529235D01*
X210117080Y-82226159D01*
X210094215Y-81921693D01*
X210012391Y-81627538D01*
X209998484Y-81600000D01*
X212202367Y-81600000D01*
X212119894Y-81850765D01*
X212082920Y-82153841D01*
X212105785Y-82458307D01*
X212187609Y-82752462D01*
X212325247Y-83025002D01*
X212365424Y-83085132D01*
X212583026Y-83211619D01*
X213604645Y-82190000D01*
X213675355Y-82190000D01*
X214696974Y-83211619D01*
X214914576Y-83085132D01*
X215064716Y-82819275D01*
X215160106Y-82529235D01*
X215197080Y-82226159D01*
X215174215Y-81921693D01*
X215092391Y-81627538D01*
X214954753Y-81354998D01*
X214914576Y-81294868D01*
X214696974Y-81168381D01*
X213675355Y-82190000D01*
X213604645Y-82190000D01*
X213590503Y-82175858D01*
X213625858Y-82140503D01*
X213640000Y-82154645D01*
X214661619Y-81133026D01*
X214535132Y-80915424D01*
X214269275Y-80765284D01*
X213979235Y-80669894D01*
X213676159Y-80632920D01*
X213371693Y-80655785D01*
X213100000Y-80731361D01*
X213100000Y-78564077D01*
X213300765Y-78630106D01*
X213603841Y-78667080D01*
X213908307Y-78644215D01*
X214202462Y-78562391D01*
X214475002Y-78424753D01*
X214535132Y-78384576D01*
X214661619Y-78166974D01*
X213640000Y-77145355D01*
X213625858Y-77159498D01*
X213590503Y-77124143D01*
X213604645Y-77110000D01*
X213675355Y-77110000D01*
X214696974Y-78131619D01*
X214914576Y-78005132D01*
X215064716Y-77739275D01*
X215160106Y-77449235D01*
X215197080Y-77146159D01*
X215174215Y-76841693D01*
X215092391Y-76547538D01*
X214954753Y-76274998D01*
X214914576Y-76214868D01*
X214696974Y-76088381D01*
X213675355Y-77110000D01*
X213604645Y-77110000D01*
X212583026Y-76088381D01*
X212365424Y-76214868D01*
X212215284Y-76480725D01*
X212119894Y-76770765D01*
X212082920Y-77073841D01*
X212105785Y-77378307D01*
X212187609Y-77672462D01*
X212302520Y-77900000D01*
X209893948Y-77900000D01*
X209984716Y-77739275D01*
X210080106Y-77449235D01*
X210117080Y-77146159D01*
X210094215Y-76841693D01*
X210012391Y-76547538D01*
X209874753Y-76274998D01*
X209834576Y-76214868D01*
X209616974Y-76088381D01*
X208595355Y-77110000D01*
X208609498Y-77124143D01*
X208574143Y-77159498D01*
X208560000Y-77145355D01*
X207538381Y-78166974D01*
X207664868Y-78384576D01*
X207692180Y-78400000D01*
X204100000Y-78400000D01*
X204100000Y-77073841D01*
X207002920Y-77073841D01*
X207025785Y-77378307D01*
X207107609Y-77672462D01*
X207245247Y-77945002D01*
X207285424Y-78005132D01*
X207503026Y-78131619D01*
X208524645Y-77110000D01*
X207503026Y-76088381D01*
X207285424Y-76214868D01*
X207135284Y-76480725D01*
X207039894Y-76770765D01*
X207002920Y-77073841D01*
X204100000Y-77073841D01*
X204100000Y-76053026D01*
X207538381Y-76053026D01*
X208560000Y-77074645D01*
X209581619Y-76053026D01*
X212618381Y-76053026D01*
X213640000Y-77074645D01*
X214661619Y-76053026D01*
X214535132Y-75835424D01*
X214269275Y-75685284D01*
X213979235Y-75589894D01*
X213676159Y-75552920D01*
X213371693Y-75575785D01*
X213077538Y-75657609D01*
X212804998Y-75795247D01*
X212744868Y-75835424D01*
X212618381Y-76053026D01*
X209581619Y-76053026D01*
X209455132Y-75835424D01*
X209189275Y-75685284D01*
X208899235Y-75589894D01*
X208596159Y-75552920D01*
X208291693Y-75575785D01*
X207997538Y-75657609D01*
X207724998Y-75795247D01*
X207664868Y-75835424D01*
X207538381Y-76053026D01*
X204100000Y-76053026D01*
X204100000Y-75000000D01*
X204098079Y-74980491D01*
X204092388Y-74961732D01*
X204083147Y-74944443D01*
X204070711Y-74929289D01*
X204055557Y-74916853D01*
X204038268Y-74907612D01*
X204019509Y-74901921D01*
X204000000Y-74900000D01*
X198500000Y-74900000D01*
X198473486Y-74903579D01*
X198455185Y-74910604D01*
X198438606Y-74921065D01*
X196300000Y-76584425D01*
X196300000Y-76165685D01*
X197065686Y-75400000D01*
X197159095Y-75400000D01*
X197275014Y-75376942D01*
X197384207Y-75331713D01*
X197482478Y-75266050D01*
X197566050Y-75182478D01*
X197631713Y-75084207D01*
X197676942Y-74975014D01*
X197700000Y-74859095D01*
X197700000Y-74740905D01*
X197676942Y-74624986D01*
X197631713Y-74515793D01*
X197566050Y-74417522D01*
X197482478Y-74333950D01*
X197384207Y-74268287D01*
X197275014Y-74223058D01*
X197159095Y-74200000D01*
X197040905Y-74200000D01*
X196924986Y-74223058D01*
X196815793Y-74268287D01*
X196717522Y-74333950D01*
X196633950Y-74417522D01*
X196568287Y-74515793D01*
X196523058Y-74624986D01*
X196500000Y-74740905D01*
X196500000Y-74834314D01*
X195631048Y-75703267D01*
X195615790Y-75715789D01*
X195603268Y-75731047D01*
X195603265Y-75731050D01*
X195565803Y-75776698D01*
X195528661Y-75846186D01*
X195505788Y-75921587D01*
X195498065Y-76000000D01*
X195500001Y-76019657D01*
X195500001Y-77206647D01*
X193938606Y-78421065D01*
X193929289Y-78429289D01*
X193916853Y-78444443D01*
X193907612Y-78461732D01*
X193901921Y-78480491D01*
X193900000Y-78500000D01*
X193900000Y-81000000D01*
X193902167Y-81020703D01*
X193908085Y-81039392D01*
X193917537Y-81056567D01*
X193930157Y-81071568D01*
X193945461Y-81083818D01*
X193962861Y-81092848D01*
X195500000Y-81707704D01*
X195500000Y-86178840D01*
X195484207Y-86168287D01*
X195375014Y-86123058D01*
X195259095Y-86100000D01*
X195165685Y-86100000D01*
X193696737Y-84631052D01*
X193684211Y-84615789D01*
X193623303Y-84565803D01*
X193553814Y-84528660D01*
X193478414Y-84505788D01*
X193419647Y-84500000D01*
X193419646Y-84500000D01*
X193400000Y-84498065D01*
X193380354Y-84500000D01*
X191698528Y-84500000D01*
X191650000Y-84451472D01*
X191650000Y-84069635D01*
X191651934Y-84049999D01*
X191650000Y-84030363D01*
X191650000Y-84030353D01*
X191644212Y-83971586D01*
X191621340Y-83896186D01*
X191584197Y-83826697D01*
X191551814Y-83787238D01*
X191546735Y-83781049D01*
X191546733Y-83781047D01*
X191534211Y-83765789D01*
X191518953Y-83753267D01*
X190796737Y-83031052D01*
X190784211Y-83015789D01*
X190723303Y-82965803D01*
X190653814Y-82928660D01*
X190578414Y-82905788D01*
X190519647Y-82900000D01*
X190519646Y-82900000D01*
X190500000Y-82898065D01*
X190480354Y-82900000D01*
X187265686Y-82900000D01*
X187200000Y-82834314D01*
X187200000Y-82740905D01*
X187176942Y-82624986D01*
X187131713Y-82515793D01*
X187066050Y-82417522D01*
X187000000Y-82351472D01*
X187000000Y-82264066D01*
X188671290Y-82264066D01*
X188692419Y-82391759D01*
X188808999Y-82454407D01*
X188935562Y-82493108D01*
X189067243Y-82506374D01*
X189198983Y-82493695D01*
X189325718Y-82455560D01*
X189442577Y-82393432D01*
X189445081Y-82391759D01*
X189466210Y-82264066D01*
X189958790Y-82264066D01*
X189979919Y-82391759D01*
X190096499Y-82454407D01*
X190223062Y-82493108D01*
X190354743Y-82506374D01*
X190486483Y-82493695D01*
X190613218Y-82455560D01*
X190730077Y-82393432D01*
X190732581Y-82391759D01*
X190753710Y-82264066D01*
X191246290Y-82264066D01*
X191267419Y-82391759D01*
X191383999Y-82454407D01*
X191510562Y-82493108D01*
X191642243Y-82506374D01*
X191773983Y-82493695D01*
X191900718Y-82455560D01*
X192017577Y-82393432D01*
X192020081Y-82391759D01*
X192041210Y-82264066D01*
X192533790Y-82264066D01*
X192554919Y-82391759D01*
X192671499Y-82454407D01*
X192798062Y-82493108D01*
X192929743Y-82506374D01*
X193061483Y-82493695D01*
X193188218Y-82455560D01*
X193305077Y-82393432D01*
X193307581Y-82391759D01*
X193328710Y-82264066D01*
X192931250Y-81866605D01*
X192533790Y-82264066D01*
X192041210Y-82264066D01*
X191643750Y-81866605D01*
X191246290Y-82264066D01*
X190753710Y-82264066D01*
X190356250Y-81866605D01*
X189958790Y-82264066D01*
X189466210Y-82264066D01*
X189068750Y-81866605D01*
X188671290Y-82264066D01*
X187000000Y-82264066D01*
X187000000Y-81829743D01*
X188393626Y-81829743D01*
X188406305Y-81961483D01*
X188444440Y-82088218D01*
X188506568Y-82205077D01*
X188508241Y-82207581D01*
X188635934Y-82228710D01*
X189033395Y-81831250D01*
X189104105Y-81831250D01*
X189501566Y-82228710D01*
X189629259Y-82207581D01*
X189691907Y-82091001D01*
X189712507Y-82023635D01*
X189731940Y-82088218D01*
X189794068Y-82205077D01*
X189795741Y-82207581D01*
X189923434Y-82228710D01*
X190320895Y-81831250D01*
X190391605Y-81831250D01*
X190789066Y-82228710D01*
X190916759Y-82207581D01*
X190979407Y-82091001D01*
X191000007Y-82023635D01*
X191019440Y-82088218D01*
X191081568Y-82205077D01*
X191083241Y-82207581D01*
X191210934Y-82228710D01*
X191608395Y-81831250D01*
X191679105Y-81831250D01*
X192076566Y-82228710D01*
X192204259Y-82207581D01*
X192266907Y-82091001D01*
X192287507Y-82023635D01*
X192306940Y-82088218D01*
X192369068Y-82205077D01*
X192370741Y-82207581D01*
X192498434Y-82228710D01*
X192895895Y-81831250D01*
X192966605Y-81831250D01*
X193364066Y-82228710D01*
X193491759Y-82207581D01*
X193554407Y-82091001D01*
X193593108Y-81964438D01*
X193606374Y-81832757D01*
X193593695Y-81701017D01*
X193555560Y-81574282D01*
X193493432Y-81457423D01*
X193491759Y-81454919D01*
X193364066Y-81433790D01*
X192966605Y-81831250D01*
X192895895Y-81831250D01*
X192498434Y-81433790D01*
X192370741Y-81454919D01*
X192308093Y-81571499D01*
X192287493Y-81638865D01*
X192268060Y-81574282D01*
X192205932Y-81457423D01*
X192204259Y-81454919D01*
X192076566Y-81433790D01*
X191679105Y-81831250D01*
X191608395Y-81831250D01*
X191210934Y-81433790D01*
X191083241Y-81454919D01*
X191020593Y-81571499D01*
X190999993Y-81638865D01*
X190980560Y-81574282D01*
X190918432Y-81457423D01*
X190916759Y-81454919D01*
X190789066Y-81433790D01*
X190391605Y-81831250D01*
X190320895Y-81831250D01*
X189923434Y-81433790D01*
X189795741Y-81454919D01*
X189733093Y-81571499D01*
X189712493Y-81638865D01*
X189693060Y-81574282D01*
X189630932Y-81457423D01*
X189629259Y-81454919D01*
X189501566Y-81433790D01*
X189104105Y-81831250D01*
X189033395Y-81831250D01*
X188635934Y-81433790D01*
X188508241Y-81454919D01*
X188445593Y-81571499D01*
X188406892Y-81698062D01*
X188393626Y-81829743D01*
X187000000Y-81829743D01*
X187000000Y-80976566D01*
X188671290Y-80976566D01*
X188692419Y-81104259D01*
X188808999Y-81166907D01*
X188876365Y-81187507D01*
X188811782Y-81206940D01*
X188694923Y-81269068D01*
X188692419Y-81270741D01*
X188671290Y-81398434D01*
X189068750Y-81795895D01*
X189466210Y-81398434D01*
X189445081Y-81270741D01*
X189328501Y-81208093D01*
X189261135Y-81187493D01*
X189325718Y-81168060D01*
X189442577Y-81105932D01*
X189445081Y-81104259D01*
X189466210Y-80976566D01*
X189958790Y-80976566D01*
X189979919Y-81104259D01*
X190096499Y-81166907D01*
X190163865Y-81187507D01*
X190099282Y-81206940D01*
X189982423Y-81269068D01*
X189979919Y-81270741D01*
X189958790Y-81398434D01*
X190356250Y-81795895D01*
X190753710Y-81398434D01*
X190732581Y-81270741D01*
X190616001Y-81208093D01*
X190548635Y-81187493D01*
X190613218Y-81168060D01*
X190730077Y-81105932D01*
X190732581Y-81104259D01*
X190753710Y-80976566D01*
X191246290Y-80976566D01*
X191267419Y-81104259D01*
X191383999Y-81166907D01*
X191451365Y-81187507D01*
X191386782Y-81206940D01*
X191269923Y-81269068D01*
X191267419Y-81270741D01*
X191246290Y-81398434D01*
X191643750Y-81795895D01*
X192041210Y-81398434D01*
X192020081Y-81270741D01*
X191903501Y-81208093D01*
X191836135Y-81187493D01*
X191900718Y-81168060D01*
X192017577Y-81105932D01*
X192020081Y-81104259D01*
X192041210Y-80976566D01*
X192533790Y-80976566D01*
X192554919Y-81104259D01*
X192671499Y-81166907D01*
X192738865Y-81187507D01*
X192674282Y-81206940D01*
X192557423Y-81269068D01*
X192554919Y-81270741D01*
X192533790Y-81398434D01*
X192931250Y-81795895D01*
X193328710Y-81398434D01*
X193307581Y-81270741D01*
X193191001Y-81208093D01*
X193123635Y-81187493D01*
X193188218Y-81168060D01*
X193305077Y-81105932D01*
X193307581Y-81104259D01*
X193328710Y-80976566D01*
X192931250Y-80579105D01*
X192533790Y-80976566D01*
X192041210Y-80976566D01*
X191643750Y-80579105D01*
X191246290Y-80976566D01*
X190753710Y-80976566D01*
X190356250Y-80579105D01*
X189958790Y-80976566D01*
X189466210Y-80976566D01*
X189068750Y-80579105D01*
X188671290Y-80976566D01*
X187000000Y-80976566D01*
X187000000Y-80542243D01*
X188393626Y-80542243D01*
X188406305Y-80673983D01*
X188444440Y-80800718D01*
X188506568Y-80917577D01*
X188508241Y-80920081D01*
X188635934Y-80941210D01*
X189033395Y-80543750D01*
X189104105Y-80543750D01*
X189501566Y-80941210D01*
X189629259Y-80920081D01*
X189691907Y-80803501D01*
X189712507Y-80736135D01*
X189731940Y-80800718D01*
X189794068Y-80917577D01*
X189795741Y-80920081D01*
X189923434Y-80941210D01*
X190320895Y-80543750D01*
X190391605Y-80543750D01*
X190789066Y-80941210D01*
X190916759Y-80920081D01*
X190979407Y-80803501D01*
X191000007Y-80736135D01*
X191019440Y-80800718D01*
X191081568Y-80917577D01*
X191083241Y-80920081D01*
X191210934Y-80941210D01*
X191608395Y-80543750D01*
X191679105Y-80543750D01*
X192076566Y-80941210D01*
X192204259Y-80920081D01*
X192266907Y-80803501D01*
X192287507Y-80736135D01*
X192306940Y-80800718D01*
X192369068Y-80917577D01*
X192370741Y-80920081D01*
X192498434Y-80941210D01*
X192895895Y-80543750D01*
X192966605Y-80543750D01*
X193364066Y-80941210D01*
X193491759Y-80920081D01*
X193554407Y-80803501D01*
X193593108Y-80676938D01*
X193606374Y-80545257D01*
X193593695Y-80413517D01*
X193555560Y-80286782D01*
X193493432Y-80169923D01*
X193491759Y-80167419D01*
X193364066Y-80146290D01*
X192966605Y-80543750D01*
X192895895Y-80543750D01*
X192498434Y-80146290D01*
X192370741Y-80167419D01*
X192308093Y-80283999D01*
X192287493Y-80351365D01*
X192268060Y-80286782D01*
X192205932Y-80169923D01*
X192204259Y-80167419D01*
X192076566Y-80146290D01*
X191679105Y-80543750D01*
X191608395Y-80543750D01*
X191210934Y-80146290D01*
X191083241Y-80167419D01*
X191020593Y-80283999D01*
X190999993Y-80351365D01*
X190980560Y-80286782D01*
X190918432Y-80169923D01*
X190916759Y-80167419D01*
X190789066Y-80146290D01*
X190391605Y-80543750D01*
X190320895Y-80543750D01*
X189923434Y-80146290D01*
X189795741Y-80167419D01*
X189733093Y-80283999D01*
X189712493Y-80351365D01*
X189693060Y-80286782D01*
X189630932Y-80169923D01*
X189629259Y-80167419D01*
X189501566Y-80146290D01*
X189104105Y-80543750D01*
X189033395Y-80543750D01*
X188635934Y-80146290D01*
X188508241Y-80167419D01*
X188445593Y-80283999D01*
X188406892Y-80410562D01*
X188393626Y-80542243D01*
X187000000Y-80542243D01*
X187000000Y-79689066D01*
X188671290Y-79689066D01*
X188692419Y-79816759D01*
X188808999Y-79879407D01*
X188876365Y-79900007D01*
X188811782Y-79919440D01*
X188694923Y-79981568D01*
X188692419Y-79983241D01*
X188671290Y-80110934D01*
X189068750Y-80508395D01*
X189466210Y-80110934D01*
X189445081Y-79983241D01*
X189328501Y-79920593D01*
X189261135Y-79899993D01*
X189325718Y-79880560D01*
X189442577Y-79818432D01*
X189445081Y-79816759D01*
X189466210Y-79689066D01*
X189958790Y-79689066D01*
X189979919Y-79816759D01*
X190096499Y-79879407D01*
X190163865Y-79900007D01*
X190099282Y-79919440D01*
X189982423Y-79981568D01*
X189979919Y-79983241D01*
X189958790Y-80110934D01*
X190356250Y-80508395D01*
X190753710Y-80110934D01*
X190732581Y-79983241D01*
X190616001Y-79920593D01*
X190548635Y-79899993D01*
X190613218Y-79880560D01*
X190730077Y-79818432D01*
X190732581Y-79816759D01*
X190753710Y-79689066D01*
X191246290Y-79689066D01*
X191267419Y-79816759D01*
X191383999Y-79879407D01*
X191451365Y-79900007D01*
X191386782Y-79919440D01*
X191269923Y-79981568D01*
X191267419Y-79983241D01*
X191246290Y-80110934D01*
X191643750Y-80508395D01*
X192041210Y-80110934D01*
X192020081Y-79983241D01*
X191903501Y-79920593D01*
X191836135Y-79899993D01*
X191900718Y-79880560D01*
X192017577Y-79818432D01*
X192020081Y-79816759D01*
X192041210Y-79689066D01*
X192533790Y-79689066D01*
X192554919Y-79816759D01*
X192671499Y-79879407D01*
X192738865Y-79900007D01*
X192674282Y-79919440D01*
X192557423Y-79981568D01*
X192554919Y-79983241D01*
X192533790Y-80110934D01*
X192931250Y-80508395D01*
X193328710Y-80110934D01*
X193307581Y-79983241D01*
X193191001Y-79920593D01*
X193123635Y-79899993D01*
X193188218Y-79880560D01*
X193305077Y-79818432D01*
X193307581Y-79816759D01*
X193328710Y-79689066D01*
X192931250Y-79291605D01*
X192533790Y-79689066D01*
X192041210Y-79689066D01*
X191643750Y-79291605D01*
X191246290Y-79689066D01*
X190753710Y-79689066D01*
X190356250Y-79291605D01*
X189958790Y-79689066D01*
X189466210Y-79689066D01*
X189068750Y-79291605D01*
X188671290Y-79689066D01*
X187000000Y-79689066D01*
X187000000Y-79254743D01*
X188393626Y-79254743D01*
X188406305Y-79386483D01*
X188444440Y-79513218D01*
X188506568Y-79630077D01*
X188508241Y-79632581D01*
X188635934Y-79653710D01*
X189033395Y-79256250D01*
X189104105Y-79256250D01*
X189501566Y-79653710D01*
X189629259Y-79632581D01*
X189691907Y-79516001D01*
X189712507Y-79448635D01*
X189731940Y-79513218D01*
X189794068Y-79630077D01*
X189795741Y-79632581D01*
X189923434Y-79653710D01*
X190320895Y-79256250D01*
X190391605Y-79256250D01*
X190789066Y-79653710D01*
X190916759Y-79632581D01*
X190979407Y-79516001D01*
X191000007Y-79448635D01*
X191019440Y-79513218D01*
X191081568Y-79630077D01*
X191083241Y-79632581D01*
X191210934Y-79653710D01*
X191608395Y-79256250D01*
X191679105Y-79256250D01*
X192076566Y-79653710D01*
X192204259Y-79632581D01*
X192266907Y-79516001D01*
X192287507Y-79448635D01*
X192306940Y-79513218D01*
X192369068Y-79630077D01*
X192370741Y-79632581D01*
X192498434Y-79653710D01*
X192895895Y-79256250D01*
X192966605Y-79256250D01*
X193364066Y-79653710D01*
X193491759Y-79632581D01*
X193554407Y-79516001D01*
X193593108Y-79389438D01*
X193606374Y-79257757D01*
X193593695Y-79126017D01*
X193555560Y-78999282D01*
X193493432Y-78882423D01*
X193491759Y-78879919D01*
X193364066Y-78858790D01*
X192966605Y-79256250D01*
X192895895Y-79256250D01*
X192498434Y-78858790D01*
X192370741Y-78879919D01*
X192308093Y-78996499D01*
X192287493Y-79063865D01*
X192268060Y-78999282D01*
X192205932Y-78882423D01*
X192204259Y-78879919D01*
X192076566Y-78858790D01*
X191679105Y-79256250D01*
X191608395Y-79256250D01*
X191210934Y-78858790D01*
X191083241Y-78879919D01*
X191020593Y-78996499D01*
X190999993Y-79063865D01*
X190980560Y-78999282D01*
X190918432Y-78882423D01*
X190916759Y-78879919D01*
X190789066Y-78858790D01*
X190391605Y-79256250D01*
X190320895Y-79256250D01*
X189923434Y-78858790D01*
X189795741Y-78879919D01*
X189733093Y-78996499D01*
X189712493Y-79063865D01*
X189693060Y-78999282D01*
X189630932Y-78882423D01*
X189629259Y-78879919D01*
X189501566Y-78858790D01*
X189104105Y-79256250D01*
X189033395Y-79256250D01*
X188635934Y-78858790D01*
X188508241Y-78879919D01*
X188445593Y-78996499D01*
X188406892Y-79123062D01*
X188393626Y-79254743D01*
X187000000Y-79254743D01*
X187000000Y-78401566D01*
X188671290Y-78401566D01*
X188692419Y-78529259D01*
X188808999Y-78591907D01*
X188876365Y-78612507D01*
X188811782Y-78631940D01*
X188694923Y-78694068D01*
X188692419Y-78695741D01*
X188671290Y-78823434D01*
X189068750Y-79220895D01*
X189466210Y-78823434D01*
X189445081Y-78695741D01*
X189328501Y-78633093D01*
X189261135Y-78612493D01*
X189325718Y-78593060D01*
X189442577Y-78530932D01*
X189445081Y-78529259D01*
X189466210Y-78401566D01*
X189958790Y-78401566D01*
X189979919Y-78529259D01*
X190096499Y-78591907D01*
X190163865Y-78612507D01*
X190099282Y-78631940D01*
X189982423Y-78694068D01*
X189979919Y-78695741D01*
X189958790Y-78823434D01*
X190356250Y-79220895D01*
X190753710Y-78823434D01*
X190732581Y-78695741D01*
X190616001Y-78633093D01*
X190548635Y-78612493D01*
X190613218Y-78593060D01*
X190730077Y-78530932D01*
X190732581Y-78529259D01*
X190753710Y-78401566D01*
X191246290Y-78401566D01*
X191267419Y-78529259D01*
X191383999Y-78591907D01*
X191451365Y-78612507D01*
X191386782Y-78631940D01*
X191269923Y-78694068D01*
X191267419Y-78695741D01*
X191246290Y-78823434D01*
X191643750Y-79220895D01*
X192041210Y-78823434D01*
X192020081Y-78695741D01*
X191903501Y-78633093D01*
X191836135Y-78612493D01*
X191900718Y-78593060D01*
X192017577Y-78530932D01*
X192020081Y-78529259D01*
X192041210Y-78401566D01*
X192533790Y-78401566D01*
X192554919Y-78529259D01*
X192671499Y-78591907D01*
X192738865Y-78612507D01*
X192674282Y-78631940D01*
X192557423Y-78694068D01*
X192554919Y-78695741D01*
X192533790Y-78823434D01*
X192931250Y-79220895D01*
X193328710Y-78823434D01*
X193307581Y-78695741D01*
X193191001Y-78633093D01*
X193123635Y-78612493D01*
X193188218Y-78593060D01*
X193305077Y-78530932D01*
X193307581Y-78529259D01*
X193328710Y-78401566D01*
X192931250Y-78004105D01*
X192533790Y-78401566D01*
X192041210Y-78401566D01*
X191643750Y-78004105D01*
X191246290Y-78401566D01*
X190753710Y-78401566D01*
X190356250Y-78004105D01*
X189958790Y-78401566D01*
X189466210Y-78401566D01*
X189068750Y-78004105D01*
X188671290Y-78401566D01*
X187000000Y-78401566D01*
X187000000Y-77967243D01*
X188393626Y-77967243D01*
X188406305Y-78098983D01*
X188444440Y-78225718D01*
X188506568Y-78342577D01*
X188508241Y-78345081D01*
X188635934Y-78366210D01*
X189033395Y-77968750D01*
X189104105Y-77968750D01*
X189501566Y-78366210D01*
X189629259Y-78345081D01*
X189691907Y-78228501D01*
X189712507Y-78161135D01*
X189731940Y-78225718D01*
X189794068Y-78342577D01*
X189795741Y-78345081D01*
X189923434Y-78366210D01*
X190320895Y-77968750D01*
X190391605Y-77968750D01*
X190789066Y-78366210D01*
X190916759Y-78345081D01*
X190979407Y-78228501D01*
X191000007Y-78161135D01*
X191019440Y-78225718D01*
X191081568Y-78342577D01*
X191083241Y-78345081D01*
X191210934Y-78366210D01*
X191608395Y-77968750D01*
X191679105Y-77968750D01*
X192076566Y-78366210D01*
X192204259Y-78345081D01*
X192266907Y-78228501D01*
X192287507Y-78161135D01*
X192306940Y-78225718D01*
X192369068Y-78342577D01*
X192370741Y-78345081D01*
X192498434Y-78366210D01*
X192895895Y-77968750D01*
X192966605Y-77968750D01*
X193364066Y-78366210D01*
X193491759Y-78345081D01*
X193554407Y-78228501D01*
X193593108Y-78101938D01*
X193606374Y-77970257D01*
X193593695Y-77838517D01*
X193555560Y-77711782D01*
X193493432Y-77594923D01*
X193491759Y-77592419D01*
X193364066Y-77571290D01*
X192966605Y-77968750D01*
X192895895Y-77968750D01*
X192498434Y-77571290D01*
X192370741Y-77592419D01*
X192308093Y-77708999D01*
X192287493Y-77776365D01*
X192268060Y-77711782D01*
X192205932Y-77594923D01*
X192204259Y-77592419D01*
X192076566Y-77571290D01*
X191679105Y-77968750D01*
X191608395Y-77968750D01*
X191210934Y-77571290D01*
X191083241Y-77592419D01*
X191020593Y-77708999D01*
X190999993Y-77776365D01*
X190980560Y-77711782D01*
X190918432Y-77594923D01*
X190916759Y-77592419D01*
X190789066Y-77571290D01*
X190391605Y-77968750D01*
X190320895Y-77968750D01*
X189923434Y-77571290D01*
X189795741Y-77592419D01*
X189733093Y-77708999D01*
X189712493Y-77776365D01*
X189693060Y-77711782D01*
X189630932Y-77594923D01*
X189629259Y-77592419D01*
X189501566Y-77571290D01*
X189104105Y-77968750D01*
X189033395Y-77968750D01*
X188635934Y-77571290D01*
X188508241Y-77592419D01*
X188445593Y-77708999D01*
X188406892Y-77835562D01*
X188393626Y-77967243D01*
X187000000Y-77967243D01*
X187000000Y-77535934D01*
X188671290Y-77535934D01*
X189068750Y-77933395D01*
X189466210Y-77535934D01*
X189958790Y-77535934D01*
X190356250Y-77933395D01*
X190753710Y-77535934D01*
X191246290Y-77535934D01*
X191643750Y-77933395D01*
X192041210Y-77535934D01*
X192533790Y-77535934D01*
X192931250Y-77933395D01*
X193328710Y-77535934D01*
X193307581Y-77408241D01*
X193191001Y-77345593D01*
X193064438Y-77306892D01*
X192932757Y-77293626D01*
X192801017Y-77306305D01*
X192674282Y-77344440D01*
X192557423Y-77406568D01*
X192554919Y-77408241D01*
X192533790Y-77535934D01*
X192041210Y-77535934D01*
X192020081Y-77408241D01*
X191903501Y-77345593D01*
X191776938Y-77306892D01*
X191645257Y-77293626D01*
X191513517Y-77306305D01*
X191386782Y-77344440D01*
X191269923Y-77406568D01*
X191267419Y-77408241D01*
X191246290Y-77535934D01*
X190753710Y-77535934D01*
X190732581Y-77408241D01*
X190616001Y-77345593D01*
X190489438Y-77306892D01*
X190357757Y-77293626D01*
X190226017Y-77306305D01*
X190099282Y-77344440D01*
X189982423Y-77406568D01*
X189979919Y-77408241D01*
X189958790Y-77535934D01*
X189466210Y-77535934D01*
X189445081Y-77408241D01*
X189328501Y-77345593D01*
X189201938Y-77306892D01*
X189070257Y-77293626D01*
X188938517Y-77306305D01*
X188811782Y-77344440D01*
X188694923Y-77406568D01*
X188692419Y-77408241D01*
X188671290Y-77535934D01*
X187000000Y-77535934D01*
X187000000Y-77119635D01*
X187001934Y-77099999D01*
X187000000Y-77080363D01*
X187000000Y-77080353D01*
X186994212Y-77021586D01*
X186971340Y-76946186D01*
X186934197Y-76876697D01*
X186904823Y-76840905D01*
X186896735Y-76831049D01*
X186896733Y-76831047D01*
X186884211Y-76815789D01*
X186868953Y-76803267D01*
X186000000Y-75934315D01*
X186000000Y-75865686D01*
X186065686Y-75800000D01*
X193780354Y-75800000D01*
X193800000Y-75801935D01*
X193819646Y-75800000D01*
X193819647Y-75800000D01*
X193878414Y-75794212D01*
X193953814Y-75771340D01*
X194023303Y-75734197D01*
X194084211Y-75684211D01*
X194096737Y-75668948D01*
X194465685Y-75300000D01*
X194559095Y-75300000D01*
X194675014Y-75276942D01*
X194784207Y-75231713D01*
X194882478Y-75166050D01*
X194966050Y-75082478D01*
X195031713Y-74984207D01*
X195076942Y-74875014D01*
X195100000Y-74759095D01*
X195100000Y-74640905D01*
X195076942Y-74524986D01*
X195031713Y-74415793D01*
X194966050Y-74317522D01*
X194882478Y-74233950D01*
X194784207Y-74168287D01*
X194675014Y-74123058D01*
X194559095Y-74100000D01*
X194440905Y-74100000D01*
X194324986Y-74123058D01*
X194215793Y-74168287D01*
X194117522Y-74233950D01*
X194033950Y-74317522D01*
X193968287Y-74415793D01*
X193923058Y-74524986D01*
X193900000Y-74640905D01*
X193900000Y-74734315D01*
X193634315Y-75000000D01*
X190048528Y-75000000D01*
X190066050Y-74982478D01*
X190131713Y-74884207D01*
X190176942Y-74775014D01*
X190200000Y-74659095D01*
X190200000Y-74540905D01*
X190176942Y-74424986D01*
X190131713Y-74315793D01*
X190066050Y-74217522D01*
X189982478Y-74133950D01*
X189884207Y-74068287D01*
X189775014Y-74023058D01*
X189659095Y-74000000D01*
X189540905Y-74000000D01*
X189424986Y-74023058D01*
X189315793Y-74068287D01*
X189217522Y-74133950D01*
X189151472Y-74200000D01*
X183840696Y-74200000D01*
X180900000Y-71259305D01*
X180900000Y-71165895D01*
X180876942Y-71049976D01*
X180831713Y-70940783D01*
X180766050Y-70842512D01*
X180682478Y-70758940D01*
X180584207Y-70693277D01*
X180475014Y-70648048D01*
X180359095Y-70624990D01*
X180240905Y-70624990D01*
X180124986Y-70648048D01*
X180015793Y-70693277D01*
X179917522Y-70758940D01*
X179833950Y-70842512D01*
X179768287Y-70940783D01*
X179723058Y-71049976D01*
X179700000Y-71165895D01*
X179700000Y-71284085D01*
X179723058Y-71400004D01*
X179768287Y-71509197D01*
X179833950Y-71607468D01*
X179917522Y-71691040D01*
X180015793Y-71756703D01*
X180124986Y-71801932D01*
X180240905Y-71824990D01*
X180334315Y-71824990D01*
X183378277Y-74868953D01*
X183390799Y-74884211D01*
X183406057Y-74896733D01*
X183406059Y-74896735D01*
X183451707Y-74934197D01*
X183521195Y-74971340D01*
X183563613Y-74984207D01*
X183596596Y-74994212D01*
X183635717Y-74998065D01*
X183675010Y-75001935D01*
X183694656Y-75000000D01*
X185880353Y-75000000D01*
X185821586Y-75005788D01*
X185746186Y-75028660D01*
X185676697Y-75065803D01*
X185631049Y-75103265D01*
X185631047Y-75103267D01*
X185615789Y-75115789D01*
X185603267Y-75131047D01*
X185434314Y-75300000D01*
X185340905Y-75300000D01*
X185224986Y-75323058D01*
X185115793Y-75368287D01*
X185017522Y-75433950D01*
X184933950Y-75517522D01*
X184868287Y-75615793D01*
X184823058Y-75724986D01*
X184800000Y-75840905D01*
X184800000Y-75959095D01*
X184823058Y-76075014D01*
X184868287Y-76184207D01*
X184933950Y-76282478D01*
X185017522Y-76366050D01*
X185115793Y-76431713D01*
X185224986Y-76476942D01*
X185340905Y-76500000D01*
X185434315Y-76500000D01*
X186200001Y-77265687D01*
X186200001Y-79218332D01*
X186166050Y-79167522D01*
X186082478Y-79083950D01*
X185984207Y-79018287D01*
X185875014Y-78973058D01*
X185759095Y-78950000D01*
X185700000Y-78950000D01*
X185700000Y-78840905D01*
X185676942Y-78724986D01*
X185631713Y-78615793D01*
X185566050Y-78517522D01*
X185548527Y-78499999D01*
X185566050Y-78482475D01*
X185631713Y-78384204D01*
X185676942Y-78275011D01*
X185700000Y-78159092D01*
X185700000Y-78040902D01*
X185676942Y-77924983D01*
X185631713Y-77815790D01*
X185566050Y-77717519D01*
X185548527Y-77699996D01*
X185566050Y-77682472D01*
X185631713Y-77584201D01*
X185676942Y-77475008D01*
X185700000Y-77359089D01*
X185700000Y-77240899D01*
X185676942Y-77124980D01*
X185631713Y-77015787D01*
X185566050Y-76917516D01*
X185482478Y-76833944D01*
X185384207Y-76768281D01*
X185275014Y-76723052D01*
X185159095Y-76699994D01*
X185040905Y-76699994D01*
X184924986Y-76723052D01*
X184815793Y-76768281D01*
X184717522Y-76833944D01*
X184648316Y-76903150D01*
X184621592Y-76905782D01*
X184546192Y-76928654D01*
X184476703Y-76965797D01*
X184415795Y-77015783D01*
X184403269Y-77031046D01*
X181823172Y-79611143D01*
X181801207Y-79500721D01*
X181755978Y-79391528D01*
X181690315Y-79293257D01*
X181606743Y-79209685D01*
X181508472Y-79144022D01*
X181399279Y-79098793D01*
X181283360Y-79075735D01*
X181189951Y-79075735D01*
X179345267Y-77231052D01*
X179332741Y-77215789D01*
X179271833Y-77165803D01*
X179202344Y-77128660D01*
X179126944Y-77105788D01*
X179068177Y-77100000D01*
X179068176Y-77100000D01*
X179048530Y-77098065D01*
X179028884Y-77100000D01*
X177888035Y-77100000D01*
X177971209Y-77044425D01*
X178124425Y-76891209D01*
X178244807Y-76711045D01*
X178327727Y-76510858D01*
X178370000Y-76298341D01*
X178370000Y-76081659D01*
X178327727Y-75869142D01*
X178244807Y-75668955D01*
X178124425Y-75488791D01*
X177971209Y-75335575D01*
X177791045Y-75215193D01*
X177590858Y-75132273D01*
X177378341Y-75090000D01*
X177161659Y-75090000D01*
X176949142Y-75132273D01*
X176748955Y-75215193D01*
X176568791Y-75335575D01*
X176415575Y-75488791D01*
X176295193Y-75668955D01*
X176230001Y-75826343D01*
X176230001Y-74769636D01*
X176231935Y-74750000D01*
X176230001Y-74730364D01*
X176230001Y-74730354D01*
X176224213Y-74671587D01*
X176201341Y-74596187D01*
X176164198Y-74526698D01*
X176114212Y-74465790D01*
X176098954Y-74453268D01*
X175911257Y-74265572D01*
X175917012Y-74246601D01*
X175931451Y-74100000D01*
X175931451Y-73541659D01*
X176170000Y-73541659D01*
X176170000Y-73758341D01*
X176212273Y-73970858D01*
X176295193Y-74171045D01*
X176415575Y-74351209D01*
X176568791Y-74504425D01*
X176748955Y-74624807D01*
X176949142Y-74707727D01*
X177161659Y-74750000D01*
X177378341Y-74750000D01*
X177590858Y-74707727D01*
X177791045Y-74624807D01*
X177971209Y-74504425D01*
X178124425Y-74351209D01*
X178244807Y-74171045D01*
X178327727Y-73970858D01*
X178370000Y-73758341D01*
X178370000Y-73541659D01*
X178327727Y-73329142D01*
X178244807Y-73128955D01*
X178124425Y-72948791D01*
X177971209Y-72795575D01*
X177791045Y-72675193D01*
X177590858Y-72592273D01*
X177378341Y-72550000D01*
X177161659Y-72550000D01*
X176949142Y-72592273D01*
X176748955Y-72675193D01*
X176568791Y-72795575D01*
X176415575Y-72948791D01*
X176295193Y-73128955D01*
X176212273Y-73329142D01*
X176170000Y-73541659D01*
X175931451Y-73541659D01*
X175931451Y-73200000D01*
X175917012Y-73053399D01*
X175874250Y-72912432D01*
X175804809Y-72782516D01*
X175711356Y-72668644D01*
X175597484Y-72575191D01*
X175467568Y-72505750D01*
X175326601Y-72462988D01*
X175180000Y-72448549D01*
X174280000Y-72448549D01*
X174133399Y-72462988D01*
X173992432Y-72505750D01*
X173862516Y-72575191D01*
X173748644Y-72668644D01*
X173655191Y-72782516D01*
X173585750Y-72912432D01*
X173542988Y-73053399D01*
X173528549Y-73200000D01*
X170600000Y-73200000D01*
X170600000Y-66600000D01*
X218400000Y-66600000D01*
X218400000Y-88400000D01*
%TA.AperFunction,Conductor*%
D15*
G36*
X218400000Y-88400000D02*
G01*
X170600000Y-88400000D01*
X170600000Y-86241659D01*
X173630000Y-86241659D01*
X173630000Y-86458341D01*
X173672273Y-86670858D01*
X173755193Y-86871045D01*
X173875575Y-87051209D01*
X174028791Y-87204425D01*
X174208955Y-87324807D01*
X174409142Y-87407727D01*
X174621659Y-87450000D01*
X174838341Y-87450000D01*
X175050858Y-87407727D01*
X175251045Y-87324807D01*
X175431209Y-87204425D01*
X175512928Y-87122706D01*
X176532650Y-87122706D01*
X176611160Y-87299347D01*
X176809029Y-87409639D01*
X177024611Y-87479210D01*
X177249624Y-87505386D01*
X177475420Y-87487161D01*
X177693322Y-87425235D01*
X177894956Y-87321988D01*
X177928840Y-87299347D01*
X178007350Y-87122706D01*
X177270000Y-86385355D01*
X176532650Y-87122706D01*
X175512928Y-87122706D01*
X175584425Y-87051209D01*
X175704807Y-86871045D01*
X175787727Y-86670858D01*
X175830000Y-86458341D01*
X175830000Y-86329624D01*
X176114614Y-86329624D01*
X176132839Y-86555420D01*
X176194765Y-86773322D01*
X176298012Y-86974956D01*
X176320653Y-87008840D01*
X176497294Y-87087350D01*
X177234645Y-86350000D01*
X177305355Y-86350000D01*
X178042706Y-87087350D01*
X178219347Y-87008840D01*
X178329639Y-86810971D01*
X178399210Y-86595389D01*
X178425386Y-86370376D01*
X178407161Y-86144580D01*
X178345235Y-85926678D01*
X178241988Y-85725044D01*
X178219347Y-85691160D01*
X178042706Y-85612650D01*
X177305355Y-86350000D01*
X177234645Y-86350000D01*
X176497294Y-85612650D01*
X176320653Y-85691160D01*
X176210361Y-85889029D01*
X176140790Y-86104611D01*
X176114614Y-86329624D01*
X175830000Y-86329624D01*
X175830000Y-86241659D01*
X175787727Y-86029142D01*
X175704807Y-85828955D01*
X175584425Y-85648791D01*
X175431209Y-85495575D01*
X175251045Y-85375193D01*
X175050858Y-85292273D01*
X174838341Y-85250000D01*
X174621659Y-85250000D01*
X174409142Y-85292273D01*
X174208955Y-85375193D01*
X174028791Y-85495575D01*
X173875575Y-85648791D01*
X173755193Y-85828955D01*
X173672273Y-86029142D01*
X173630000Y-86241659D01*
X170600000Y-86241659D01*
X170600000Y-78621659D01*
X173630000Y-78621659D01*
X173630000Y-78838341D01*
X173672273Y-79050858D01*
X173755193Y-79251045D01*
X173875575Y-79431209D01*
X174028791Y-79584425D01*
X174208955Y-79704807D01*
X174409142Y-79787727D01*
X174621659Y-79830000D01*
X174838341Y-79830000D01*
X175050858Y-79787727D01*
X175251045Y-79704807D01*
X175431209Y-79584425D01*
X175584425Y-79431209D01*
X175704807Y-79251045D01*
X175787727Y-79050858D01*
X175830000Y-78838341D01*
X175830000Y-78621659D01*
X175787727Y-78409142D01*
X175704807Y-78208955D01*
X175584425Y-78028791D01*
X175431209Y-77875575D01*
X175251045Y-77755193D01*
X175050858Y-77672273D01*
X174838341Y-77630000D01*
X174621659Y-77630000D01*
X174409142Y-77672273D01*
X174208955Y-77755193D01*
X174028791Y-77875575D01*
X173875575Y-78028791D01*
X173755193Y-78208955D01*
X173672273Y-78409142D01*
X173630000Y-78621659D01*
X170600000Y-78621659D01*
X170600000Y-73200000D01*
X173528549Y-73200000D01*
X173528549Y-74100000D01*
X173542988Y-74246601D01*
X173585750Y-74387568D01*
X173655191Y-74517484D01*
X173748644Y-74631356D01*
X173862516Y-74724809D01*
X173992432Y-74794250D01*
X174133399Y-74837012D01*
X174280000Y-74851451D01*
X175180000Y-74851451D01*
X175326601Y-74837012D01*
X175345572Y-74831257D01*
X175430002Y-74915688D01*
X175430002Y-75334768D01*
X175251045Y-75215193D01*
X175050858Y-75132273D01*
X174838341Y-75090000D01*
X174621659Y-75090000D01*
X174409142Y-75132273D01*
X174208955Y-75215193D01*
X174028791Y-75335575D01*
X173875575Y-75488791D01*
X173755193Y-75668955D01*
X173672273Y-75869142D01*
X173630000Y-76081659D01*
X173630000Y-76298341D01*
X173672273Y-76510858D01*
X173755193Y-76711045D01*
X173875575Y-76891209D01*
X174028791Y-77044425D01*
X174208955Y-77164807D01*
X174409142Y-77247727D01*
X174621659Y-77290000D01*
X174838341Y-77290000D01*
X175050858Y-77247727D01*
X175251045Y-77164807D01*
X175431209Y-77044425D01*
X175584425Y-76891209D01*
X175661769Y-76775456D01*
X176655261Y-77768948D01*
X176667787Y-77784211D01*
X176684724Y-77798111D01*
X176568791Y-77875575D01*
X176415575Y-78028791D01*
X176295193Y-78208955D01*
X176212273Y-78409142D01*
X176170000Y-78621659D01*
X176170000Y-78838341D01*
X176212273Y-79050858D01*
X176295193Y-79251045D01*
X176415575Y-79431209D01*
X176568791Y-79584425D01*
X176748955Y-79704807D01*
X176949142Y-79787727D01*
X177161659Y-79830000D01*
X177378341Y-79830000D01*
X177590858Y-79787727D01*
X177711903Y-79737589D01*
X178519003Y-80544689D01*
X178531525Y-80559947D01*
X178546783Y-80572469D01*
X178546785Y-80572471D01*
X178554869Y-80579105D01*
X178592433Y-80609933D01*
X178661922Y-80647076D01*
X178737322Y-80669948D01*
X178778291Y-80673983D01*
X178815736Y-80677671D01*
X178835383Y-80675736D01*
X181558579Y-80675736D01*
X180264314Y-81970001D01*
X178125232Y-81970001D01*
X178244807Y-81791045D01*
X178327727Y-81590858D01*
X178370000Y-81378341D01*
X178370000Y-81161659D01*
X178327727Y-80949142D01*
X178244807Y-80748955D01*
X178124425Y-80568791D01*
X177971209Y-80415575D01*
X177791045Y-80295193D01*
X177590858Y-80212273D01*
X177378341Y-80170000D01*
X177161659Y-80170000D01*
X176949142Y-80212273D01*
X176748955Y-80295193D01*
X176568791Y-80415575D01*
X176415575Y-80568791D01*
X176295193Y-80748955D01*
X176212273Y-80949142D01*
X176170000Y-81161659D01*
X176170000Y-81378341D01*
X176212273Y-81590858D01*
X176295193Y-81791045D01*
X176414768Y-81970001D01*
X175995687Y-81970001D01*
X175737589Y-81711903D01*
X175787727Y-81590858D01*
X175830000Y-81378341D01*
X175830000Y-81161659D01*
X175787727Y-80949142D01*
X175704807Y-80748955D01*
X175584425Y-80568791D01*
X175431209Y-80415575D01*
X175251045Y-80295193D01*
X175050858Y-80212273D01*
X174838341Y-80170000D01*
X174621659Y-80170000D01*
X174409142Y-80212273D01*
X174208955Y-80295193D01*
X174028791Y-80415575D01*
X173875575Y-80568791D01*
X173755193Y-80748955D01*
X173672273Y-80949142D01*
X173630000Y-81161659D01*
X173630000Y-81378341D01*
X173672273Y-81590858D01*
X173755193Y-81791045D01*
X173875575Y-81971209D01*
X174028791Y-82124425D01*
X174208955Y-82244807D01*
X174409142Y-82327727D01*
X174621659Y-82370000D01*
X174838341Y-82370000D01*
X175050858Y-82327727D01*
X175171903Y-82277589D01*
X175533268Y-82638954D01*
X175545790Y-82654212D01*
X175561048Y-82666734D01*
X175561050Y-82666736D01*
X175592983Y-82692942D01*
X175606698Y-82704198D01*
X175676187Y-82741341D01*
X175751587Y-82764213D01*
X175810354Y-82770001D01*
X175810364Y-82770001D01*
X175830000Y-82771935D01*
X175849636Y-82770001D01*
X176906343Y-82770001D01*
X176748955Y-82835193D01*
X176568791Y-82955575D01*
X176415575Y-83108791D01*
X176295193Y-83288955D01*
X176212273Y-83489142D01*
X176170000Y-83701659D01*
X176170000Y-83918341D01*
X176212273Y-84130858D01*
X176295193Y-84331045D01*
X176414768Y-84510001D01*
X175995687Y-84510001D01*
X175737589Y-84251903D01*
X175787727Y-84130858D01*
X175830000Y-83918341D01*
X175830000Y-83701659D01*
X175787727Y-83489142D01*
X175704807Y-83288955D01*
X175584425Y-83108791D01*
X175431209Y-82955575D01*
X175251045Y-82835193D01*
X175050858Y-82752273D01*
X174838341Y-82710000D01*
X174621659Y-82710000D01*
X174409142Y-82752273D01*
X174208955Y-82835193D01*
X174028791Y-82955575D01*
X173875575Y-83108791D01*
X173755193Y-83288955D01*
X173672273Y-83489142D01*
X173630000Y-83701659D01*
X173630000Y-83918341D01*
X173672273Y-84130858D01*
X173755193Y-84331045D01*
X173875575Y-84511209D01*
X174028791Y-84664425D01*
X174208955Y-84784807D01*
X174409142Y-84867727D01*
X174621659Y-84910000D01*
X174838341Y-84910000D01*
X175050858Y-84867727D01*
X175171903Y-84817589D01*
X175533268Y-85178954D01*
X175545790Y-85194212D01*
X175561048Y-85206734D01*
X175561050Y-85206736D01*
X175568487Y-85212839D01*
X175606698Y-85244198D01*
X175676187Y-85281341D01*
X175751587Y-85304213D01*
X175810354Y-85310001D01*
X175810364Y-85310001D01*
X175830000Y-85311935D01*
X175849636Y-85310001D01*
X176777865Y-85310001D01*
X176645044Y-85378012D01*
X176611160Y-85400653D01*
X176532650Y-85577294D01*
X177270000Y-86314645D01*
X178007350Y-85577294D01*
X177928840Y-85400653D01*
X177766206Y-85310001D01*
X180320353Y-85310001D01*
X180339999Y-85311936D01*
X180359645Y-85310001D01*
X180359646Y-85310001D01*
X180418413Y-85304213D01*
X180493813Y-85281341D01*
X180563302Y-85244198D01*
X180624210Y-85194212D01*
X180636736Y-85178949D01*
X181251093Y-84564592D01*
X181273058Y-84675014D01*
X181318287Y-84784207D01*
X181383950Y-84882478D01*
X181467522Y-84966050D01*
X181565793Y-85031713D01*
X181674986Y-85076942D01*
X181790905Y-85100000D01*
X181909095Y-85100000D01*
X182025014Y-85076942D01*
X182134207Y-85031713D01*
X182232478Y-84966050D01*
X182298528Y-84900000D01*
X189780354Y-84900000D01*
X189800000Y-84901935D01*
X189819646Y-84900000D01*
X189819647Y-84900000D01*
X189878414Y-84894212D01*
X189953814Y-84871340D01*
X190023303Y-84834197D01*
X190084211Y-84784211D01*
X190096737Y-84768948D01*
X190194240Y-84671445D01*
X190287650Y-84671445D01*
X190403569Y-84648387D01*
X190512762Y-84603158D01*
X190611033Y-84537495D01*
X190694605Y-84453923D01*
X190760268Y-84355652D01*
X190805497Y-84246459D01*
X190817986Y-84183672D01*
X190850001Y-84215687D01*
X190850001Y-84451471D01*
X190783950Y-84517522D01*
X190718287Y-84615793D01*
X190673058Y-84724986D01*
X190650000Y-84840905D01*
X190650000Y-84959095D01*
X190673058Y-85075014D01*
X190718287Y-85184207D01*
X190783950Y-85282478D01*
X190850000Y-85348528D01*
X190850000Y-85718355D01*
X190848065Y-85738002D01*
X190850000Y-85757648D01*
X190855788Y-85816415D01*
X190878660Y-85891815D01*
X190915803Y-85961304D01*
X190965789Y-86022213D01*
X190981052Y-86034739D01*
X192915272Y-87968959D01*
X192927798Y-87984222D01*
X192943059Y-87996746D01*
X192988706Y-88034208D01*
X193058195Y-88071351D01*
X193133595Y-88094223D01*
X193212009Y-88101946D01*
X193231656Y-88100011D01*
X195634044Y-88100011D01*
X195653690Y-88101946D01*
X195673334Y-88100011D01*
X195673337Y-88100011D01*
X195732104Y-88094223D01*
X195807504Y-88071351D01*
X195876993Y-88034208D01*
X195937901Y-87984222D01*
X195950427Y-87968959D01*
X196968953Y-86950433D01*
X196984211Y-86937911D01*
X197009047Y-86907649D01*
X197034196Y-86877004D01*
X197035260Y-86875014D01*
X197071340Y-86807514D01*
X197094212Y-86732114D01*
X197100000Y-86673347D01*
X197100000Y-86673337D01*
X197101934Y-86653701D01*
X197100000Y-86634065D01*
X197100000Y-83648528D01*
X197166050Y-83582478D01*
X197231713Y-83484207D01*
X197276942Y-83375014D01*
X197300000Y-83259095D01*
X197300000Y-83140905D01*
X197276942Y-83024986D01*
X197231713Y-82915793D01*
X197166050Y-82817522D01*
X197082478Y-82733950D01*
X196984207Y-82668287D01*
X196875014Y-82623058D01*
X196759095Y-82600000D01*
X196640905Y-82600000D01*
X196524986Y-82623058D01*
X196415793Y-82668287D01*
X196317522Y-82733950D01*
X196300000Y-82751472D01*
X196300000Y-82027704D01*
X201462861Y-84092848D01*
X201480491Y-84098079D01*
X201500000Y-84100000D01*
X204000000Y-84100000D01*
X204019509Y-84098079D01*
X204038268Y-84092388D01*
X204055557Y-84083147D01*
X204070711Y-84070711D01*
X204083147Y-84055557D01*
X204092388Y-84038268D01*
X204098079Y-84019509D01*
X204100000Y-84000000D01*
X204100000Y-83246974D01*
X207538381Y-83246974D01*
X207664868Y-83464576D01*
X207930725Y-83614716D01*
X208220765Y-83710106D01*
X208523841Y-83747080D01*
X208828307Y-83724215D01*
X209122462Y-83642391D01*
X209395002Y-83504753D01*
X209455132Y-83464576D01*
X209581619Y-83246974D01*
X212618381Y-83246974D01*
X212744868Y-83464576D01*
X213010725Y-83614716D01*
X213300765Y-83710106D01*
X213603841Y-83747080D01*
X213908307Y-83724215D01*
X214202462Y-83642391D01*
X214475002Y-83504753D01*
X214535132Y-83464576D01*
X214661619Y-83246974D01*
X213640000Y-82225355D01*
X212618381Y-83246974D01*
X209581619Y-83246974D01*
X208560000Y-82225355D01*
X207538381Y-83246974D01*
X204100000Y-83246974D01*
X204100000Y-81100000D01*
X207448047Y-81100000D01*
X207441344Y-81106703D01*
X207503024Y-81168382D01*
X207285424Y-81294868D01*
X207135284Y-81560725D01*
X207039894Y-81850765D01*
X207002920Y-82153841D01*
X207025785Y-82458307D01*
X207107609Y-82752462D01*
X207245247Y-83025002D01*
X207285424Y-83085132D01*
X207503026Y-83211619D01*
X208524645Y-82190000D01*
X208510503Y-82175858D01*
X208545858Y-82140503D01*
X208560000Y-82154645D01*
X208574143Y-82140503D01*
X208609498Y-82175858D01*
X208595355Y-82190000D01*
X209616974Y-83211619D01*
X209834576Y-83085132D01*
X209984716Y-82819275D01*
X210080106Y-82529235D01*
X210117080Y-82226159D01*
X210094215Y-81921693D01*
X210012391Y-81627538D01*
X209998484Y-81600000D01*
X212202367Y-81600000D01*
X212119894Y-81850765D01*
X212082920Y-82153841D01*
X212105785Y-82458307D01*
X212187609Y-82752462D01*
X212325247Y-83025002D01*
X212365424Y-83085132D01*
X212583026Y-83211619D01*
X213604645Y-82190000D01*
X213675355Y-82190000D01*
X214696974Y-83211619D01*
X214914576Y-83085132D01*
X215064716Y-82819275D01*
X215160106Y-82529235D01*
X215197080Y-82226159D01*
X215174215Y-81921693D01*
X215092391Y-81627538D01*
X214954753Y-81354998D01*
X214914576Y-81294868D01*
X214696974Y-81168381D01*
X213675355Y-82190000D01*
X213604645Y-82190000D01*
X213590503Y-82175858D01*
X213625858Y-82140503D01*
X213640000Y-82154645D01*
X214661619Y-81133026D01*
X214535132Y-80915424D01*
X214269275Y-80765284D01*
X213979235Y-80669894D01*
X213676159Y-80632920D01*
X213371693Y-80655785D01*
X213100000Y-80731361D01*
X213100000Y-78564077D01*
X213300765Y-78630106D01*
X213603841Y-78667080D01*
X213908307Y-78644215D01*
X214202462Y-78562391D01*
X214475002Y-78424753D01*
X214535132Y-78384576D01*
X214661619Y-78166974D01*
X213640000Y-77145355D01*
X213625858Y-77159498D01*
X213590503Y-77124143D01*
X213604645Y-77110000D01*
X213675355Y-77110000D01*
X214696974Y-78131619D01*
X214914576Y-78005132D01*
X215064716Y-77739275D01*
X215160106Y-77449235D01*
X215197080Y-77146159D01*
X215174215Y-76841693D01*
X215092391Y-76547538D01*
X214954753Y-76274998D01*
X214914576Y-76214868D01*
X214696974Y-76088381D01*
X213675355Y-77110000D01*
X213604645Y-77110000D01*
X212583026Y-76088381D01*
X212365424Y-76214868D01*
X212215284Y-76480725D01*
X212119894Y-76770765D01*
X212082920Y-77073841D01*
X212105785Y-77378307D01*
X212187609Y-77672462D01*
X212302520Y-77900000D01*
X209893948Y-77900000D01*
X209984716Y-77739275D01*
X210080106Y-77449235D01*
X210117080Y-77146159D01*
X210094215Y-76841693D01*
X210012391Y-76547538D01*
X209874753Y-76274998D01*
X209834576Y-76214868D01*
X209616974Y-76088381D01*
X208595355Y-77110000D01*
X208609498Y-77124143D01*
X208574143Y-77159498D01*
X208560000Y-77145355D01*
X207538381Y-78166974D01*
X207664868Y-78384576D01*
X207692180Y-78400000D01*
X204100000Y-78400000D01*
X204100000Y-77073841D01*
X207002920Y-77073841D01*
X207025785Y-77378307D01*
X207107609Y-77672462D01*
X207245247Y-77945002D01*
X207285424Y-78005132D01*
X207503026Y-78131619D01*
X208524645Y-77110000D01*
X207503026Y-76088381D01*
X207285424Y-76214868D01*
X207135284Y-76480725D01*
X207039894Y-76770765D01*
X207002920Y-77073841D01*
X204100000Y-77073841D01*
X204100000Y-76053026D01*
X207538381Y-76053026D01*
X208560000Y-77074645D01*
X209581619Y-76053026D01*
X212618381Y-76053026D01*
X213640000Y-77074645D01*
X214661619Y-76053026D01*
X214535132Y-75835424D01*
X214269275Y-75685284D01*
X213979235Y-75589894D01*
X213676159Y-75552920D01*
X213371693Y-75575785D01*
X213077538Y-75657609D01*
X212804998Y-75795247D01*
X212744868Y-75835424D01*
X212618381Y-76053026D01*
X209581619Y-76053026D01*
X209455132Y-75835424D01*
X209189275Y-75685284D01*
X208899235Y-75589894D01*
X208596159Y-75552920D01*
X208291693Y-75575785D01*
X207997538Y-75657609D01*
X207724998Y-75795247D01*
X207664868Y-75835424D01*
X207538381Y-76053026D01*
X204100000Y-76053026D01*
X204100000Y-75000000D01*
X204098079Y-74980491D01*
X204092388Y-74961732D01*
X204083147Y-74944443D01*
X204070711Y-74929289D01*
X204055557Y-74916853D01*
X204038268Y-74907612D01*
X204019509Y-74901921D01*
X204000000Y-74900000D01*
X198500000Y-74900000D01*
X198473486Y-74903579D01*
X198455185Y-74910604D01*
X198438606Y-74921065D01*
X196300000Y-76584425D01*
X196300000Y-76165685D01*
X197065686Y-75400000D01*
X197159095Y-75400000D01*
X197275014Y-75376942D01*
X197384207Y-75331713D01*
X197482478Y-75266050D01*
X197566050Y-75182478D01*
X197631713Y-75084207D01*
X197676942Y-74975014D01*
X197700000Y-74859095D01*
X197700000Y-74740905D01*
X197676942Y-74624986D01*
X197631713Y-74515793D01*
X197566050Y-74417522D01*
X197482478Y-74333950D01*
X197384207Y-74268287D01*
X197275014Y-74223058D01*
X197159095Y-74200000D01*
X197040905Y-74200000D01*
X196924986Y-74223058D01*
X196815793Y-74268287D01*
X196717522Y-74333950D01*
X196633950Y-74417522D01*
X196568287Y-74515793D01*
X196523058Y-74624986D01*
X196500000Y-74740905D01*
X196500000Y-74834314D01*
X195631048Y-75703267D01*
X195615790Y-75715789D01*
X195603268Y-75731047D01*
X195603265Y-75731050D01*
X195565803Y-75776698D01*
X195528661Y-75846186D01*
X195505788Y-75921587D01*
X195498065Y-76000000D01*
X195500001Y-76019657D01*
X195500001Y-77206647D01*
X193938606Y-78421065D01*
X193929289Y-78429289D01*
X193916853Y-78444443D01*
X193907612Y-78461732D01*
X193901921Y-78480491D01*
X193900000Y-78500000D01*
X193900000Y-81000000D01*
X193902167Y-81020703D01*
X193908085Y-81039392D01*
X193917537Y-81056567D01*
X193930157Y-81071568D01*
X193945461Y-81083818D01*
X193962861Y-81092848D01*
X195500000Y-81707704D01*
X195500000Y-86178840D01*
X195484207Y-86168287D01*
X195375014Y-86123058D01*
X195259095Y-86100000D01*
X195165685Y-86100000D01*
X193696737Y-84631052D01*
X193684211Y-84615789D01*
X193623303Y-84565803D01*
X193553814Y-84528660D01*
X193478414Y-84505788D01*
X193419647Y-84500000D01*
X193419646Y-84500000D01*
X193400000Y-84498065D01*
X193380354Y-84500000D01*
X191698528Y-84500000D01*
X191650000Y-84451472D01*
X191650000Y-84069635D01*
X191651934Y-84049999D01*
X191650000Y-84030363D01*
X191650000Y-84030353D01*
X191644212Y-83971586D01*
X191621340Y-83896186D01*
X191584197Y-83826697D01*
X191551814Y-83787238D01*
X191546735Y-83781049D01*
X191546733Y-83781047D01*
X191534211Y-83765789D01*
X191518953Y-83753267D01*
X190796737Y-83031052D01*
X190784211Y-83015789D01*
X190723303Y-82965803D01*
X190653814Y-82928660D01*
X190578414Y-82905788D01*
X190519647Y-82900000D01*
X190519646Y-82900000D01*
X190500000Y-82898065D01*
X190480354Y-82900000D01*
X187265686Y-82900000D01*
X187200000Y-82834314D01*
X187200000Y-82740905D01*
X187176942Y-82624986D01*
X187131713Y-82515793D01*
X187066050Y-82417522D01*
X187000000Y-82351472D01*
X187000000Y-82264066D01*
X188671290Y-82264066D01*
X188692419Y-82391759D01*
X188808999Y-82454407D01*
X188935562Y-82493108D01*
X189067243Y-82506374D01*
X189198983Y-82493695D01*
X189325718Y-82455560D01*
X189442577Y-82393432D01*
X189445081Y-82391759D01*
X189466210Y-82264066D01*
X189958790Y-82264066D01*
X189979919Y-82391759D01*
X190096499Y-82454407D01*
X190223062Y-82493108D01*
X190354743Y-82506374D01*
X190486483Y-82493695D01*
X190613218Y-82455560D01*
X190730077Y-82393432D01*
X190732581Y-82391759D01*
X190753710Y-82264066D01*
X191246290Y-82264066D01*
X191267419Y-82391759D01*
X191383999Y-82454407D01*
X191510562Y-82493108D01*
X191642243Y-82506374D01*
X191773983Y-82493695D01*
X191900718Y-82455560D01*
X192017577Y-82393432D01*
X192020081Y-82391759D01*
X192041210Y-82264066D01*
X192533790Y-82264066D01*
X192554919Y-82391759D01*
X192671499Y-82454407D01*
X192798062Y-82493108D01*
X192929743Y-82506374D01*
X193061483Y-82493695D01*
X193188218Y-82455560D01*
X193305077Y-82393432D01*
X193307581Y-82391759D01*
X193328710Y-82264066D01*
X192931250Y-81866605D01*
X192533790Y-82264066D01*
X192041210Y-82264066D01*
X191643750Y-81866605D01*
X191246290Y-82264066D01*
X190753710Y-82264066D01*
X190356250Y-81866605D01*
X189958790Y-82264066D01*
X189466210Y-82264066D01*
X189068750Y-81866605D01*
X188671290Y-82264066D01*
X187000000Y-82264066D01*
X187000000Y-81829743D01*
X188393626Y-81829743D01*
X188406305Y-81961483D01*
X188444440Y-82088218D01*
X188506568Y-82205077D01*
X188508241Y-82207581D01*
X188635934Y-82228710D01*
X189033395Y-81831250D01*
X189104105Y-81831250D01*
X189501566Y-82228710D01*
X189629259Y-82207581D01*
X189691907Y-82091001D01*
X189712507Y-82023635D01*
X189731940Y-82088218D01*
X189794068Y-82205077D01*
X189795741Y-82207581D01*
X189923434Y-82228710D01*
X190320895Y-81831250D01*
X190391605Y-81831250D01*
X190789066Y-82228710D01*
X190916759Y-82207581D01*
X190979407Y-82091001D01*
X191000007Y-82023635D01*
X191019440Y-82088218D01*
X191081568Y-82205077D01*
X191083241Y-82207581D01*
X191210934Y-82228710D01*
X191608395Y-81831250D01*
X191679105Y-81831250D01*
X192076566Y-82228710D01*
X192204259Y-82207581D01*
X192266907Y-82091001D01*
X192287507Y-82023635D01*
X192306940Y-82088218D01*
X192369068Y-82205077D01*
X192370741Y-82207581D01*
X192498434Y-82228710D01*
X192895895Y-81831250D01*
X192966605Y-81831250D01*
X193364066Y-82228710D01*
X193491759Y-82207581D01*
X193554407Y-82091001D01*
X193593108Y-81964438D01*
X193606374Y-81832757D01*
X193593695Y-81701017D01*
X193555560Y-81574282D01*
X193493432Y-81457423D01*
X193491759Y-81454919D01*
X193364066Y-81433790D01*
X192966605Y-81831250D01*
X192895895Y-81831250D01*
X192498434Y-81433790D01*
X192370741Y-81454919D01*
X192308093Y-81571499D01*
X192287493Y-81638865D01*
X192268060Y-81574282D01*
X192205932Y-81457423D01*
X192204259Y-81454919D01*
X192076566Y-81433790D01*
X191679105Y-81831250D01*
X191608395Y-81831250D01*
X191210934Y-81433790D01*
X191083241Y-81454919D01*
X191020593Y-81571499D01*
X190999993Y-81638865D01*
X190980560Y-81574282D01*
X190918432Y-81457423D01*
X190916759Y-81454919D01*
X190789066Y-81433790D01*
X190391605Y-81831250D01*
X190320895Y-81831250D01*
X189923434Y-81433790D01*
X189795741Y-81454919D01*
X189733093Y-81571499D01*
X189712493Y-81638865D01*
X189693060Y-81574282D01*
X189630932Y-81457423D01*
X189629259Y-81454919D01*
X189501566Y-81433790D01*
X189104105Y-81831250D01*
X189033395Y-81831250D01*
X188635934Y-81433790D01*
X188508241Y-81454919D01*
X188445593Y-81571499D01*
X188406892Y-81698062D01*
X188393626Y-81829743D01*
X187000000Y-81829743D01*
X187000000Y-80976566D01*
X188671290Y-80976566D01*
X188692419Y-81104259D01*
X188808999Y-81166907D01*
X188876365Y-81187507D01*
X188811782Y-81206940D01*
X188694923Y-81269068D01*
X188692419Y-81270741D01*
X188671290Y-81398434D01*
X189068750Y-81795895D01*
X189466210Y-81398434D01*
X189445081Y-81270741D01*
X189328501Y-81208093D01*
X189261135Y-81187493D01*
X189325718Y-81168060D01*
X189442577Y-81105932D01*
X189445081Y-81104259D01*
X189466210Y-80976566D01*
X189958790Y-80976566D01*
X189979919Y-81104259D01*
X190096499Y-81166907D01*
X190163865Y-81187507D01*
X190099282Y-81206940D01*
X189982423Y-81269068D01*
X189979919Y-81270741D01*
X189958790Y-81398434D01*
X190356250Y-81795895D01*
X190753710Y-81398434D01*
X190732581Y-81270741D01*
X190616001Y-81208093D01*
X190548635Y-81187493D01*
X190613218Y-81168060D01*
X190730077Y-81105932D01*
X190732581Y-81104259D01*
X190753710Y-80976566D01*
X191246290Y-80976566D01*
X191267419Y-81104259D01*
X191383999Y-81166907D01*
X191451365Y-81187507D01*
X191386782Y-81206940D01*
X191269923Y-81269068D01*
X191267419Y-81270741D01*
X191246290Y-81398434D01*
X191643750Y-81795895D01*
X192041210Y-81398434D01*
X192020081Y-81270741D01*
X191903501Y-81208093D01*
X191836135Y-81187493D01*
X191900718Y-81168060D01*
X192017577Y-81105932D01*
X192020081Y-81104259D01*
X192041210Y-80976566D01*
X192533790Y-80976566D01*
X192554919Y-81104259D01*
X192671499Y-81166907D01*
X192738865Y-81187507D01*
X192674282Y-81206940D01*
X192557423Y-81269068D01*
X192554919Y-81270741D01*
X192533790Y-81398434D01*
X192931250Y-81795895D01*
X193328710Y-81398434D01*
X193307581Y-81270741D01*
X193191001Y-81208093D01*
X193123635Y-81187493D01*
X193188218Y-81168060D01*
X193305077Y-81105932D01*
X193307581Y-81104259D01*
X193328710Y-80976566D01*
X192931250Y-80579105D01*
X192533790Y-80976566D01*
X192041210Y-80976566D01*
X191643750Y-80579105D01*
X191246290Y-80976566D01*
X190753710Y-80976566D01*
X190356250Y-80579105D01*
X189958790Y-80976566D01*
X189466210Y-80976566D01*
X189068750Y-80579105D01*
X188671290Y-80976566D01*
X187000000Y-80976566D01*
X187000000Y-80542243D01*
X188393626Y-80542243D01*
X188406305Y-80673983D01*
X188444440Y-80800718D01*
X188506568Y-80917577D01*
X188508241Y-80920081D01*
X188635934Y-80941210D01*
X189033395Y-80543750D01*
X189104105Y-80543750D01*
X189501566Y-80941210D01*
X189629259Y-80920081D01*
X189691907Y-80803501D01*
X189712507Y-80736135D01*
X189731940Y-80800718D01*
X189794068Y-80917577D01*
X189795741Y-80920081D01*
X189923434Y-80941210D01*
X190320895Y-80543750D01*
X190391605Y-80543750D01*
X190789066Y-80941210D01*
X190916759Y-80920081D01*
X190979407Y-80803501D01*
X191000007Y-80736135D01*
X191019440Y-80800718D01*
X191081568Y-80917577D01*
X191083241Y-80920081D01*
X191210934Y-80941210D01*
X191608395Y-80543750D01*
X191679105Y-80543750D01*
X192076566Y-80941210D01*
X192204259Y-80920081D01*
X192266907Y-80803501D01*
X192287507Y-80736135D01*
X192306940Y-80800718D01*
X192369068Y-80917577D01*
X192370741Y-80920081D01*
X192498434Y-80941210D01*
X192895895Y-80543750D01*
X192966605Y-80543750D01*
X193364066Y-80941210D01*
X193491759Y-80920081D01*
X193554407Y-80803501D01*
X193593108Y-80676938D01*
X193606374Y-80545257D01*
X193593695Y-80413517D01*
X193555560Y-80286782D01*
X193493432Y-80169923D01*
X193491759Y-80167419D01*
X193364066Y-80146290D01*
X192966605Y-80543750D01*
X192895895Y-80543750D01*
X192498434Y-80146290D01*
X192370741Y-80167419D01*
X192308093Y-80283999D01*
X192287493Y-80351365D01*
X192268060Y-80286782D01*
X192205932Y-80169923D01*
X192204259Y-80167419D01*
X192076566Y-80146290D01*
X191679105Y-80543750D01*
X191608395Y-80543750D01*
X191210934Y-80146290D01*
X191083241Y-80167419D01*
X191020593Y-80283999D01*
X190999993Y-80351365D01*
X190980560Y-80286782D01*
X190918432Y-80169923D01*
X190916759Y-80167419D01*
X190789066Y-80146290D01*
X190391605Y-80543750D01*
X190320895Y-80543750D01*
X189923434Y-80146290D01*
X189795741Y-80167419D01*
X189733093Y-80283999D01*
X189712493Y-80351365D01*
X189693060Y-80286782D01*
X189630932Y-80169923D01*
X189629259Y-80167419D01*
X189501566Y-80146290D01*
X189104105Y-80543750D01*
X189033395Y-80543750D01*
X188635934Y-80146290D01*
X188508241Y-80167419D01*
X188445593Y-80283999D01*
X188406892Y-80410562D01*
X188393626Y-80542243D01*
X187000000Y-80542243D01*
X187000000Y-79689066D01*
X188671290Y-79689066D01*
X188692419Y-79816759D01*
X188808999Y-79879407D01*
X188876365Y-79900007D01*
X188811782Y-79919440D01*
X188694923Y-79981568D01*
X188692419Y-79983241D01*
X188671290Y-80110934D01*
X189068750Y-80508395D01*
X189466210Y-80110934D01*
X189445081Y-79983241D01*
X189328501Y-79920593D01*
X189261135Y-79899993D01*
X189325718Y-79880560D01*
X189442577Y-79818432D01*
X189445081Y-79816759D01*
X189466210Y-79689066D01*
X189958790Y-79689066D01*
X189979919Y-79816759D01*
X190096499Y-79879407D01*
X190163865Y-79900007D01*
X190099282Y-79919440D01*
X189982423Y-79981568D01*
X189979919Y-79983241D01*
X189958790Y-80110934D01*
X190356250Y-80508395D01*
X190753710Y-80110934D01*
X190732581Y-79983241D01*
X190616001Y-79920593D01*
X190548635Y-79899993D01*
X190613218Y-79880560D01*
X190730077Y-79818432D01*
X190732581Y-79816759D01*
X190753710Y-79689066D01*
X191246290Y-79689066D01*
X191267419Y-79816759D01*
X191383999Y-79879407D01*
X191451365Y-79900007D01*
X191386782Y-79919440D01*
X191269923Y-79981568D01*
X191267419Y-79983241D01*
X191246290Y-80110934D01*
X191643750Y-80508395D01*
X192041210Y-80110934D01*
X192020081Y-79983241D01*
X191903501Y-79920593D01*
X191836135Y-79899993D01*
X191900718Y-79880560D01*
X192017577Y-79818432D01*
X192020081Y-79816759D01*
X192041210Y-79689066D01*
X192533790Y-79689066D01*
X192554919Y-79816759D01*
X192671499Y-79879407D01*
X192738865Y-79900007D01*
X192674282Y-79919440D01*
X192557423Y-79981568D01*
X192554919Y-79983241D01*
X192533790Y-80110934D01*
X192931250Y-80508395D01*
X193328710Y-80110934D01*
X193307581Y-79983241D01*
X193191001Y-79920593D01*
X193123635Y-79899993D01*
X193188218Y-79880560D01*
X193305077Y-79818432D01*
X193307581Y-79816759D01*
X193328710Y-79689066D01*
X192931250Y-79291605D01*
X192533790Y-79689066D01*
X192041210Y-79689066D01*
X191643750Y-79291605D01*
X191246290Y-79689066D01*
X190753710Y-79689066D01*
X190356250Y-79291605D01*
X189958790Y-79689066D01*
X189466210Y-79689066D01*
X189068750Y-79291605D01*
X188671290Y-79689066D01*
X187000000Y-79689066D01*
X187000000Y-79254743D01*
X188393626Y-79254743D01*
X188406305Y-79386483D01*
X188444440Y-79513218D01*
X188506568Y-79630077D01*
X188508241Y-79632581D01*
X188635934Y-79653710D01*
X189033395Y-79256250D01*
X189104105Y-79256250D01*
X189501566Y-79653710D01*
X189629259Y-79632581D01*
X189691907Y-79516001D01*
X189712507Y-79448635D01*
X189731940Y-79513218D01*
X189794068Y-79630077D01*
X189795741Y-79632581D01*
X189923434Y-79653710D01*
X190320895Y-79256250D01*
X190391605Y-79256250D01*
X190789066Y-79653710D01*
X190916759Y-79632581D01*
X190979407Y-79516001D01*
X191000007Y-79448635D01*
X191019440Y-79513218D01*
X191081568Y-79630077D01*
X191083241Y-79632581D01*
X191210934Y-79653710D01*
X191608395Y-79256250D01*
X191679105Y-79256250D01*
X192076566Y-79653710D01*
X192204259Y-79632581D01*
X192266907Y-79516001D01*
X192287507Y-79448635D01*
X192306940Y-79513218D01*
X192369068Y-79630077D01*
X192370741Y-79632581D01*
X192498434Y-79653710D01*
X192895895Y-79256250D01*
X192966605Y-79256250D01*
X193364066Y-79653710D01*
X193491759Y-79632581D01*
X193554407Y-79516001D01*
X193593108Y-79389438D01*
X193606374Y-79257757D01*
X193593695Y-79126017D01*
X193555560Y-78999282D01*
X193493432Y-78882423D01*
X193491759Y-78879919D01*
X193364066Y-78858790D01*
X192966605Y-79256250D01*
X192895895Y-79256250D01*
X192498434Y-78858790D01*
X192370741Y-78879919D01*
X192308093Y-78996499D01*
X192287493Y-79063865D01*
X192268060Y-78999282D01*
X192205932Y-78882423D01*
X192204259Y-78879919D01*
X192076566Y-78858790D01*
X191679105Y-79256250D01*
X191608395Y-79256250D01*
X191210934Y-78858790D01*
X191083241Y-78879919D01*
X191020593Y-78996499D01*
X190999993Y-79063865D01*
X190980560Y-78999282D01*
X190918432Y-78882423D01*
X190916759Y-78879919D01*
X190789066Y-78858790D01*
X190391605Y-79256250D01*
X190320895Y-79256250D01*
X189923434Y-78858790D01*
X189795741Y-78879919D01*
X189733093Y-78996499D01*
X189712493Y-79063865D01*
X189693060Y-78999282D01*
X189630932Y-78882423D01*
X189629259Y-78879919D01*
X189501566Y-78858790D01*
X189104105Y-79256250D01*
X189033395Y-79256250D01*
X188635934Y-78858790D01*
X188508241Y-78879919D01*
X188445593Y-78996499D01*
X188406892Y-79123062D01*
X188393626Y-79254743D01*
X187000000Y-79254743D01*
X187000000Y-78401566D01*
X188671290Y-78401566D01*
X188692419Y-78529259D01*
X188808999Y-78591907D01*
X188876365Y-78612507D01*
X188811782Y-78631940D01*
X188694923Y-78694068D01*
X188692419Y-78695741D01*
X188671290Y-78823434D01*
X189068750Y-79220895D01*
X189466210Y-78823434D01*
X189445081Y-78695741D01*
X189328501Y-78633093D01*
X189261135Y-78612493D01*
X189325718Y-78593060D01*
X189442577Y-78530932D01*
X189445081Y-78529259D01*
X189466210Y-78401566D01*
X189958790Y-78401566D01*
X189979919Y-78529259D01*
X190096499Y-78591907D01*
X190163865Y-78612507D01*
X190099282Y-78631940D01*
X189982423Y-78694068D01*
X189979919Y-78695741D01*
X189958790Y-78823434D01*
X190356250Y-79220895D01*
X190753710Y-78823434D01*
X190732581Y-78695741D01*
X190616001Y-78633093D01*
X190548635Y-78612493D01*
X190613218Y-78593060D01*
X190730077Y-78530932D01*
X190732581Y-78529259D01*
X190753710Y-78401566D01*
X191246290Y-78401566D01*
X191267419Y-78529259D01*
X191383999Y-78591907D01*
X191451365Y-78612507D01*
X191386782Y-78631940D01*
X191269923Y-78694068D01*
X191267419Y-78695741D01*
X191246290Y-78823434D01*
X191643750Y-79220895D01*
X192041210Y-78823434D01*
X192020081Y-78695741D01*
X191903501Y-78633093D01*
X191836135Y-78612493D01*
X191900718Y-78593060D01*
X192017577Y-78530932D01*
X192020081Y-78529259D01*
X192041210Y-78401566D01*
X192533790Y-78401566D01*
X192554919Y-78529259D01*
X192671499Y-78591907D01*
X192738865Y-78612507D01*
X192674282Y-78631940D01*
X192557423Y-78694068D01*
X192554919Y-78695741D01*
X192533790Y-78823434D01*
X192931250Y-79220895D01*
X193328710Y-78823434D01*
X193307581Y-78695741D01*
X193191001Y-78633093D01*
X193123635Y-78612493D01*
X193188218Y-78593060D01*
X193305077Y-78530932D01*
X193307581Y-78529259D01*
X193328710Y-78401566D01*
X192931250Y-78004105D01*
X192533790Y-78401566D01*
X192041210Y-78401566D01*
X191643750Y-78004105D01*
X191246290Y-78401566D01*
X190753710Y-78401566D01*
X190356250Y-78004105D01*
X189958790Y-78401566D01*
X189466210Y-78401566D01*
X189068750Y-78004105D01*
X188671290Y-78401566D01*
X187000000Y-78401566D01*
X187000000Y-77967243D01*
X188393626Y-77967243D01*
X188406305Y-78098983D01*
X188444440Y-78225718D01*
X188506568Y-78342577D01*
X188508241Y-78345081D01*
X188635934Y-78366210D01*
X189033395Y-77968750D01*
X189104105Y-77968750D01*
X189501566Y-78366210D01*
X189629259Y-78345081D01*
X189691907Y-78228501D01*
X189712507Y-78161135D01*
X189731940Y-78225718D01*
X189794068Y-78342577D01*
X189795741Y-78345081D01*
X189923434Y-78366210D01*
X190320895Y-77968750D01*
X190391605Y-77968750D01*
X190789066Y-78366210D01*
X190916759Y-78345081D01*
X190979407Y-78228501D01*
X191000007Y-78161135D01*
X191019440Y-78225718D01*
X191081568Y-78342577D01*
X191083241Y-78345081D01*
X191210934Y-78366210D01*
X191608395Y-77968750D01*
X191679105Y-77968750D01*
X192076566Y-78366210D01*
X192204259Y-78345081D01*
X192266907Y-78228501D01*
X192287507Y-78161135D01*
X192306940Y-78225718D01*
X192369068Y-78342577D01*
X192370741Y-78345081D01*
X192498434Y-78366210D01*
X192895895Y-77968750D01*
X192966605Y-77968750D01*
X193364066Y-78366210D01*
X193491759Y-78345081D01*
X193554407Y-78228501D01*
X193593108Y-78101938D01*
X193606374Y-77970257D01*
X193593695Y-77838517D01*
X193555560Y-77711782D01*
X193493432Y-77594923D01*
X193491759Y-77592419D01*
X193364066Y-77571290D01*
X192966605Y-77968750D01*
X192895895Y-77968750D01*
X192498434Y-77571290D01*
X192370741Y-77592419D01*
X192308093Y-77708999D01*
X192287493Y-77776365D01*
X192268060Y-77711782D01*
X192205932Y-77594923D01*
X192204259Y-77592419D01*
X192076566Y-77571290D01*
X191679105Y-77968750D01*
X191608395Y-77968750D01*
X191210934Y-77571290D01*
X191083241Y-77592419D01*
X191020593Y-77708999D01*
X190999993Y-77776365D01*
X190980560Y-77711782D01*
X190918432Y-77594923D01*
X190916759Y-77592419D01*
X190789066Y-77571290D01*
X190391605Y-77968750D01*
X190320895Y-77968750D01*
X189923434Y-77571290D01*
X189795741Y-77592419D01*
X189733093Y-77708999D01*
X189712493Y-77776365D01*
X189693060Y-77711782D01*
X189630932Y-77594923D01*
X189629259Y-77592419D01*
X189501566Y-77571290D01*
X189104105Y-77968750D01*
X189033395Y-77968750D01*
X188635934Y-77571290D01*
X188508241Y-77592419D01*
X188445593Y-77708999D01*
X188406892Y-77835562D01*
X188393626Y-77967243D01*
X187000000Y-77967243D01*
X187000000Y-77535934D01*
X188671290Y-77535934D01*
X189068750Y-77933395D01*
X189466210Y-77535934D01*
X189958790Y-77535934D01*
X190356250Y-77933395D01*
X190753710Y-77535934D01*
X191246290Y-77535934D01*
X191643750Y-77933395D01*
X192041210Y-77535934D01*
X192533790Y-77535934D01*
X192931250Y-77933395D01*
X193328710Y-77535934D01*
X193307581Y-77408241D01*
X193191001Y-77345593D01*
X193064438Y-77306892D01*
X192932757Y-77293626D01*
X192801017Y-77306305D01*
X192674282Y-77344440D01*
X192557423Y-77406568D01*
X192554919Y-77408241D01*
X192533790Y-77535934D01*
X192041210Y-77535934D01*
X192020081Y-77408241D01*
X191903501Y-77345593D01*
X191776938Y-77306892D01*
X191645257Y-77293626D01*
X191513517Y-77306305D01*
X191386782Y-77344440D01*
X191269923Y-77406568D01*
X191267419Y-77408241D01*
X191246290Y-77535934D01*
X190753710Y-77535934D01*
X190732581Y-77408241D01*
X190616001Y-77345593D01*
X190489438Y-77306892D01*
X190357757Y-77293626D01*
X190226017Y-77306305D01*
X190099282Y-77344440D01*
X189982423Y-77406568D01*
X189979919Y-77408241D01*
X189958790Y-77535934D01*
X189466210Y-77535934D01*
X189445081Y-77408241D01*
X189328501Y-77345593D01*
X189201938Y-77306892D01*
X189070257Y-77293626D01*
X188938517Y-77306305D01*
X188811782Y-77344440D01*
X188694923Y-77406568D01*
X188692419Y-77408241D01*
X188671290Y-77535934D01*
X187000000Y-77535934D01*
X187000000Y-77119635D01*
X187001934Y-77099999D01*
X187000000Y-77080363D01*
X187000000Y-77080353D01*
X186994212Y-77021586D01*
X186971340Y-76946186D01*
X186934197Y-76876697D01*
X186904823Y-76840905D01*
X186896735Y-76831049D01*
X186896733Y-76831047D01*
X186884211Y-76815789D01*
X186868953Y-76803267D01*
X186000000Y-75934315D01*
X186000000Y-75865686D01*
X186065686Y-75800000D01*
X193780354Y-75800000D01*
X193800000Y-75801935D01*
X193819646Y-75800000D01*
X193819647Y-75800000D01*
X193878414Y-75794212D01*
X193953814Y-75771340D01*
X194023303Y-75734197D01*
X194084211Y-75684211D01*
X194096737Y-75668948D01*
X194465685Y-75300000D01*
X194559095Y-75300000D01*
X194675014Y-75276942D01*
X194784207Y-75231713D01*
X194882478Y-75166050D01*
X194966050Y-75082478D01*
X195031713Y-74984207D01*
X195076942Y-74875014D01*
X195100000Y-74759095D01*
X195100000Y-74640905D01*
X195076942Y-74524986D01*
X195031713Y-74415793D01*
X194966050Y-74317522D01*
X194882478Y-74233950D01*
X194784207Y-74168287D01*
X194675014Y-74123058D01*
X194559095Y-74100000D01*
X194440905Y-74100000D01*
X194324986Y-74123058D01*
X194215793Y-74168287D01*
X194117522Y-74233950D01*
X194033950Y-74317522D01*
X193968287Y-74415793D01*
X193923058Y-74524986D01*
X193900000Y-74640905D01*
X193900000Y-74734315D01*
X193634315Y-75000000D01*
X190048528Y-75000000D01*
X190066050Y-74982478D01*
X190131713Y-74884207D01*
X190176942Y-74775014D01*
X190200000Y-74659095D01*
X190200000Y-74540905D01*
X190176942Y-74424986D01*
X190131713Y-74315793D01*
X190066050Y-74217522D01*
X189982478Y-74133950D01*
X189884207Y-74068287D01*
X189775014Y-74023058D01*
X189659095Y-74000000D01*
X189540905Y-74000000D01*
X189424986Y-74023058D01*
X189315793Y-74068287D01*
X189217522Y-74133950D01*
X189151472Y-74200000D01*
X183840696Y-74200000D01*
X180900000Y-71259305D01*
X180900000Y-71165895D01*
X180876942Y-71049976D01*
X180831713Y-70940783D01*
X180766050Y-70842512D01*
X180682478Y-70758940D01*
X180584207Y-70693277D01*
X180475014Y-70648048D01*
X180359095Y-70624990D01*
X180240905Y-70624990D01*
X180124986Y-70648048D01*
X180015793Y-70693277D01*
X179917522Y-70758940D01*
X179833950Y-70842512D01*
X179768287Y-70940783D01*
X179723058Y-71049976D01*
X179700000Y-71165895D01*
X179700000Y-71284085D01*
X179723058Y-71400004D01*
X179768287Y-71509197D01*
X179833950Y-71607468D01*
X179917522Y-71691040D01*
X180015793Y-71756703D01*
X180124986Y-71801932D01*
X180240905Y-71824990D01*
X180334315Y-71824990D01*
X183378277Y-74868953D01*
X183390799Y-74884211D01*
X183406057Y-74896733D01*
X183406059Y-74896735D01*
X183451707Y-74934197D01*
X183521195Y-74971340D01*
X183563613Y-74984207D01*
X183596596Y-74994212D01*
X183635717Y-74998065D01*
X183675010Y-75001935D01*
X183694656Y-75000000D01*
X185880353Y-75000000D01*
X185821586Y-75005788D01*
X185746186Y-75028660D01*
X185676697Y-75065803D01*
X185631049Y-75103265D01*
X185631047Y-75103267D01*
X185615789Y-75115789D01*
X185603267Y-75131047D01*
X185434314Y-75300000D01*
X185340905Y-75300000D01*
X185224986Y-75323058D01*
X185115793Y-75368287D01*
X185017522Y-75433950D01*
X184933950Y-75517522D01*
X184868287Y-75615793D01*
X184823058Y-75724986D01*
X184800000Y-75840905D01*
X184800000Y-75959095D01*
X184823058Y-76075014D01*
X184868287Y-76184207D01*
X184933950Y-76282478D01*
X185017522Y-76366050D01*
X185115793Y-76431713D01*
X185224986Y-76476942D01*
X185340905Y-76500000D01*
X185434315Y-76500000D01*
X186200001Y-77265687D01*
X186200001Y-79218332D01*
X186166050Y-79167522D01*
X186082478Y-79083950D01*
X185984207Y-79018287D01*
X185875014Y-78973058D01*
X185759095Y-78950000D01*
X185700000Y-78950000D01*
X185700000Y-78840905D01*
X185676942Y-78724986D01*
X185631713Y-78615793D01*
X185566050Y-78517522D01*
X185548527Y-78499999D01*
X185566050Y-78482475D01*
X185631713Y-78384204D01*
X185676942Y-78275011D01*
X185700000Y-78159092D01*
X185700000Y-78040902D01*
X185676942Y-77924983D01*
X185631713Y-77815790D01*
X185566050Y-77717519D01*
X185548527Y-77699996D01*
X185566050Y-77682472D01*
X185631713Y-77584201D01*
X185676942Y-77475008D01*
X185700000Y-77359089D01*
X185700000Y-77240899D01*
X185676942Y-77124980D01*
X185631713Y-77015787D01*
X185566050Y-76917516D01*
X185482478Y-76833944D01*
X185384207Y-76768281D01*
X185275014Y-76723052D01*
X185159095Y-76699994D01*
X185040905Y-76699994D01*
X184924986Y-76723052D01*
X184815793Y-76768281D01*
X184717522Y-76833944D01*
X184648316Y-76903150D01*
X184621592Y-76905782D01*
X184546192Y-76928654D01*
X184476703Y-76965797D01*
X184415795Y-77015783D01*
X184403269Y-77031046D01*
X181823172Y-79611143D01*
X181801207Y-79500721D01*
X181755978Y-79391528D01*
X181690315Y-79293257D01*
X181606743Y-79209685D01*
X181508472Y-79144022D01*
X181399279Y-79098793D01*
X181283360Y-79075735D01*
X181189951Y-79075735D01*
X179345267Y-77231052D01*
X179332741Y-77215789D01*
X179271833Y-77165803D01*
X179202344Y-77128660D01*
X179126944Y-77105788D01*
X179068177Y-77100000D01*
X179068176Y-77100000D01*
X179048530Y-77098065D01*
X179028884Y-77100000D01*
X177888035Y-77100000D01*
X177971209Y-77044425D01*
X178124425Y-76891209D01*
X178244807Y-76711045D01*
X178327727Y-76510858D01*
X178370000Y-76298341D01*
X178370000Y-76081659D01*
X178327727Y-75869142D01*
X178244807Y-75668955D01*
X178124425Y-75488791D01*
X177971209Y-75335575D01*
X177791045Y-75215193D01*
X177590858Y-75132273D01*
X177378341Y-75090000D01*
X177161659Y-75090000D01*
X176949142Y-75132273D01*
X176748955Y-75215193D01*
X176568791Y-75335575D01*
X176415575Y-75488791D01*
X176295193Y-75668955D01*
X176230001Y-75826343D01*
X176230001Y-74769636D01*
X176231935Y-74750000D01*
X176230001Y-74730364D01*
X176230001Y-74730354D01*
X176224213Y-74671587D01*
X176201341Y-74596187D01*
X176164198Y-74526698D01*
X176114212Y-74465790D01*
X176098954Y-74453268D01*
X175911257Y-74265572D01*
X175917012Y-74246601D01*
X175931451Y-74100000D01*
X175931451Y-73541659D01*
X176170000Y-73541659D01*
X176170000Y-73758341D01*
X176212273Y-73970858D01*
X176295193Y-74171045D01*
X176415575Y-74351209D01*
X176568791Y-74504425D01*
X176748955Y-74624807D01*
X176949142Y-74707727D01*
X177161659Y-74750000D01*
X177378341Y-74750000D01*
X177590858Y-74707727D01*
X177791045Y-74624807D01*
X177971209Y-74504425D01*
X178124425Y-74351209D01*
X178244807Y-74171045D01*
X178327727Y-73970858D01*
X178370000Y-73758341D01*
X178370000Y-73541659D01*
X178327727Y-73329142D01*
X178244807Y-73128955D01*
X178124425Y-72948791D01*
X177971209Y-72795575D01*
X177791045Y-72675193D01*
X177590858Y-72592273D01*
X177378341Y-72550000D01*
X177161659Y-72550000D01*
X176949142Y-72592273D01*
X176748955Y-72675193D01*
X176568791Y-72795575D01*
X176415575Y-72948791D01*
X176295193Y-73128955D01*
X176212273Y-73329142D01*
X176170000Y-73541659D01*
X175931451Y-73541659D01*
X175931451Y-73200000D01*
X175917012Y-73053399D01*
X175874250Y-72912432D01*
X175804809Y-72782516D01*
X175711356Y-72668644D01*
X175597484Y-72575191D01*
X175467568Y-72505750D01*
X175326601Y-72462988D01*
X175180000Y-72448549D01*
X174280000Y-72448549D01*
X174133399Y-72462988D01*
X173992432Y-72505750D01*
X173862516Y-72575191D01*
X173748644Y-72668644D01*
X173655191Y-72782516D01*
X173585750Y-72912432D01*
X173542988Y-73053399D01*
X173528549Y-73200000D01*
X170600000Y-73200000D01*
X170600000Y-66600000D01*
X218400000Y-66600000D01*
X218400000Y-88400000D01*
G37*
%TD.AperFunction*%
%TD*%
M02*
