M48
; DRILL file {KiCad 5.1.9-1.fc33} date Thu Mar  4 20:35:56 2021
; FORMAT={-:-/ absolute / metric / decimal}
; #@! TF.CreationDate,2021-03-04T20:35:56+03:00
; #@! TF.GenerationSoftware,Kicad,Pcbnew,5.1.9-1.fc33
; #@! TF.FileFunction,Plated,1,2,PTH
FMAT,2
METRIC
T1C0.200
T2C0.300
T3C1.000
T4C1.400
%
G90
G05
T1
X189.069Y-77.969
X189.069Y-79.256
X189.069Y-80.544
X189.069Y-81.831
X190.356Y-77.969
X190.356Y-79.256
X190.356Y-80.544
X190.356Y-81.831
X191.644Y-77.969
X191.644Y-79.256
X191.644Y-80.544
X191.644Y-81.831
X192.931Y-77.969
X192.931Y-79.256
X192.931Y-80.544
X192.931Y-81.831
T2
X180.3Y-71.225
X181.224Y-79.676
X181.6Y-82.4
X181.85Y-84.5
X183.05Y-76.45
X185.1Y-77.3
X185.1Y-78.1
X185.1Y-78.9
X185.4Y-75.9
X185.7Y-79.55
X186.6Y-82.8
X189.1Y-73.4
X189.6Y-74.6
X190.229Y-84.071
X191.2Y-73.1
X191.25Y-84.9
X193.1Y-86.7
X194.5Y-74.7
X195.2Y-86.7
X196.7Y-83.2
X197.1Y-74.8
X198.75Y-76.9
X198.75Y-78.6
X199.1Y-83.2
X203.05Y-76.15
X203.25Y-82.15
T3
X174.73Y-73.65
X174.73Y-76.19
X174.73Y-78.73
X174.73Y-81.27
X174.73Y-83.81
X174.73Y-86.35
X177.27Y-73.65
X177.27Y-76.19
X177.27Y-78.73
X177.27Y-81.27
X177.27Y-83.81
X177.27Y-86.35
T4
X208.56Y-77.11
X208.56Y-82.19
X211.1Y-79.65
X213.64Y-77.11
X213.64Y-82.19
T0
M30
