%TF.GenerationSoftware,KiCad,Pcbnew,5.1.9-1.fc33*%
%TF.CreationDate,2021-03-04T20:35:35+03:00*%
%TF.ProjectId,CC2420_module,43433234-3230-45f6-9d6f-64756c652e6b,rev?*%
%TF.SameCoordinates,Original*%
%TF.FileFunction,Paste,Top*%
%TF.FilePolarity,Positive*%
%FSLAX46Y46*%
G04 Gerber Fmt 4.6, Leading zero omitted, Abs format (unit mm)*
G04 Created by KiCad (PCBNEW 5.1.9-1.fc33) date 2021-03-04 20:35:35*
%MOMM*%
%LPD*%
G01*
G04 APERTURE LIST*
%ADD10R,1.300000X0.700000*%
%ADD11R,1.400000X0.800000*%
%ADD12R,1.200000X1.000000*%
%ADD13R,0.800000X1.400000*%
%ADD14O,0.600000X0.240000*%
%ADD15O,0.240000X0.600000*%
%ADD16R,0.700000X2.000000*%
%ADD17R,0.600000X0.900000*%
%ADD18R,0.700000X1.300000*%
G04 APERTURE END LIST*
D10*
%TO.C,R6*%
X197500000Y-87900000D03*
X197500000Y-85900000D03*
%TD*%
D11*
%TO.C,C5*%
X193350000Y-87900000D03*
X193350000Y-85900000D03*
%TD*%
D12*
%TO.C,BQ1*%
X189275000Y-86475000D03*
X189275000Y-84925000D03*
X187125000Y-86475000D03*
X187125000Y-84925000D03*
%TD*%
D11*
%TO.C,C1*%
X191300000Y-85900000D03*
X191300000Y-87900000D03*
%TD*%
%TO.C,C2*%
X185100000Y-84500000D03*
X185100000Y-86500000D03*
%TD*%
D13*
%TO.C,C3*%
X195700000Y-83200000D03*
X197700000Y-83200000D03*
%TD*%
D11*
%TO.C,C4*%
X195450000Y-85900000D03*
X195450000Y-87900000D03*
%TD*%
D13*
%TO.C,C6*%
X191200000Y-74700000D03*
X193200000Y-74700000D03*
%TD*%
%TO.C,C7*%
X185500000Y-82800000D03*
X183500000Y-82800000D03*
%TD*%
%TO.C,C8*%
X184400000Y-75800000D03*
X186400000Y-75800000D03*
%TD*%
D14*
%TO.C,DA1*%
X194400000Y-82650000D03*
X194400000Y-82150000D03*
X194400000Y-81650000D03*
X194400000Y-81150000D03*
X194400000Y-80650000D03*
X194400000Y-80150000D03*
X194400000Y-79650000D03*
X194400000Y-79150000D03*
X194400000Y-78650000D03*
X194400000Y-78150000D03*
X194400000Y-77650000D03*
X194400000Y-77150000D03*
D15*
X193750000Y-76500000D03*
X193250000Y-76500000D03*
X192750000Y-76500000D03*
X192250000Y-76500000D03*
X191750000Y-76500000D03*
X191250000Y-76500000D03*
X190750000Y-76500000D03*
X190250000Y-76500000D03*
X189750000Y-76500000D03*
X189250000Y-76500000D03*
X188750000Y-76500000D03*
X188250000Y-76500000D03*
D14*
X187600000Y-77150000D03*
X187600000Y-77650000D03*
X187600000Y-78150000D03*
X187600000Y-78650000D03*
X187600000Y-79150000D03*
X187600000Y-79650000D03*
X187600000Y-80150000D03*
X187600000Y-80650000D03*
X187600000Y-81150000D03*
X187600000Y-81650000D03*
X187600000Y-82150000D03*
X187600000Y-82650000D03*
D15*
X188250000Y-83300000D03*
X188750000Y-83300000D03*
X189250000Y-83300000D03*
X189750000Y-83300000D03*
X190250000Y-83300000D03*
X190750000Y-83300000D03*
X191250000Y-83300000D03*
X191750000Y-83300000D03*
X192250000Y-83300000D03*
X192750000Y-83300000D03*
X193250000Y-83300000D03*
X193750000Y-83300000D03*
%TD*%
D16*
%TO.C,KT1*%
X200700000Y-86600000D03*
%TD*%
%TO.C,KT2*%
X199200000Y-86600000D03*
%TD*%
D10*
%TO.C,R1*%
X184300000Y-69700000D03*
X184300000Y-67700000D03*
%TD*%
%TO.C,R2*%
X186300000Y-67700000D03*
X186300000Y-69700000D03*
%TD*%
%TO.C,R3*%
X182300000Y-69700000D03*
X182300000Y-67700000D03*
%TD*%
%TO.C,R4*%
X188300000Y-67700000D03*
X188300000Y-69700000D03*
%TD*%
%TO.C,R5*%
X180300000Y-69700000D03*
X180300000Y-67700000D03*
%TD*%
D17*
%TO.C,C9*%
X199800000Y-77900000D03*
X201300000Y-77900000D03*
%TD*%
%TO.C,C10*%
X203250000Y-83250000D03*
X201750000Y-83250000D03*
%TD*%
D13*
%TO.C,C11*%
X199850000Y-76150000D03*
X201850000Y-76150000D03*
%TD*%
%TO.C,C12*%
X205250000Y-79650000D03*
X203250000Y-79650000D03*
%TD*%
D10*
%TO.C,L1*%
X197100000Y-78650000D03*
X197100000Y-80650000D03*
%TD*%
D18*
%TO.C,L2*%
X199750000Y-81500000D03*
X201750000Y-81500000D03*
%TD*%
%TO.C,L3*%
X198750000Y-79650000D03*
X200750000Y-79650000D03*
%TD*%
M02*
